<svg width="51" height="64" viewBox="0 0 51 64" fill="none" xmlns="http://www.w3.org/2000/svg">
<path d="M3.54609 47.765V16.235L25.498 4.60483L47.45 16.235V47.765L25.498 59.3952L3.54609 47.765Z" stroke="#2860F0" stroke-width="7.09217"/>
<mask id="path-2-inside-1_144_3336" fill="white">
<path d="M12.8338 23.1466L25.4984 16.4648L38.163 23.1466V30.7218L25.4984 24.2324L12.8338 30.7218V23.1466Z"/>
</mask>
<path d="M12.8338 23.1466L25.4984 16.4648L38.163 23.1466V30.7218L25.4984 24.2324L12.8338 30.7218V23.1466Z" fill="white"/>
<path d="M12.8338 23.1466L9.52433 16.874L5.74161 18.8697V23.1466H12.8338ZM38.163 23.1466H45.2551V18.8697L41.4724 16.874L38.163 23.1466ZM38.163 30.7218L34.9288 37.0336L45.2551 42.3248V30.7218H38.163ZM12.8338 30.7218H5.74161V42.3248L16.068 37.0336L12.8338 30.7218ZM25.4984 24.2324L28.7326 17.9206L25.4984 16.2634L22.2642 17.9206L25.4984 24.2324ZM25.4984 16.4648L28.8078 10.1921L25.4984 8.44608L22.1889 10.1921L25.4984 16.4648ZM31.0708 23.1466V30.7218H45.2551V23.1466H31.0708ZM19.926 30.7218V23.1466H5.74161V30.7218H19.926ZM41.3972 24.41L28.7326 17.9206L22.2642 30.5442L34.9288 37.0336L41.3972 24.41ZM22.2642 17.9206L9.5996 24.41L16.068 37.0336L28.7326 30.5442L22.2642 17.9206ZM16.1432 29.4193L28.8078 22.7375L22.1889 10.1921L9.52433 16.874L16.1432 29.4193ZM22.1889 22.7375L34.8535 29.4193L41.4724 16.874L28.8078 10.1921L22.1889 22.7375Z" fill="#2860F0" mask="url(#path-2-inside-1_144_3336)"/>
<mask id="path-4-inside-2_144_3336" fill="white">
<path d="M38.1612 40.926L25.4966 47.6078L12.832 40.926V33.3508L25.4966 39.8402L38.1612 33.3508V40.926Z"/>
</mask>
<path d="M38.1612 40.926L25.4966 47.6078L12.832 40.926V33.3508L25.4966 39.8402L38.1612 33.3508V40.926Z" fill="white"/>
<path d="M38.1612 40.926L41.4706 47.1986L45.2534 45.2029V40.926H38.1612ZM12.832 40.926H5.73982V45.2029L9.52254 47.1986L12.832 40.926ZM12.832 33.3508L16.0662 27.039L5.73982 21.7478V33.3508H12.832ZM38.1612 33.3508H45.2534V21.7478L34.927 27.039L38.1612 33.3508ZM25.4966 39.8402L22.2624 46.152L25.4966 47.8092L28.7308 46.152L25.4966 39.8402ZM25.4966 47.6078L22.1871 53.8805L25.4966 55.6265L28.806 53.8805L25.4966 47.6078ZM19.9242 40.926V33.3508H5.73982V40.926H19.9242ZM31.069 33.3508V40.926H45.2534V33.3508H31.069ZM9.59781 39.6626L22.2624 46.152L28.7308 33.5284L16.0662 27.039L9.59781 39.6626ZM28.7308 46.152L41.3954 39.6626L34.927 27.039L22.2624 33.5284L28.7308 46.152ZM34.8517 34.6533L22.1871 41.3351L28.806 53.8805L41.4706 47.1986L34.8517 34.6533ZM28.806 41.3351L16.1414 34.6533L9.52254 47.1986L22.1871 53.8805L28.806 41.3351Z" fill="#2860F0" mask="url(#path-4-inside-2_144_3336)"/>
</svg>
