<svg width="392" height="498" viewBox="0 0 392 498" fill="none" xmlns="http://www.w3.org/2000/svg">
<g opacity="0.02">
<g clip-path="url(#clip0_72_121)">
<path d="M447.292 150.609C445.304 144.794 442.165 139.438 438.062 134.862C433.959 130.286 428.976 126.584 423.411 123.976C412.329 119.077 399.783 118.647 388.393 122.778C377.002 126.909 367.648 135.281 362.283 146.145L349.291 171.594C348.849 172.486 348.231 173.279 347.475 173.926C346.718 174.573 345.839 175.061 344.889 175.359C343.566 175.79 342.15 175.849 340.796 175.529C339.442 175.209 338.202 174.522 337.212 173.544C336.222 172.566 335.521 171.335 335.184 169.985C334.847 168.634 334.889 167.218 335.304 165.89C342.821 141.91 335.123 122.019 314.066 111.295C303.157 105.582 290.428 104.427 278.669 108.084C266.91 111.74 257.08 119.91 251.335 130.802L183.417 264.163C182.468 266.061 181.15 267.752 179.541 269.136C177.933 270.521 176.064 271.572 174.046 272.228C172.027 272.884 169.898 273.132 167.783 272.957C165.667 272.783 163.608 272.189 161.724 271.212C159.067 269.8 156.848 267.689 155.306 265.106C153.764 262.524 152.958 259.569 152.975 256.561C152.752 249.952 150.582 243.557 146.739 238.176C142.895 232.796 137.548 228.67 131.369 226.316C123.429 223.521 114.742 223.722 106.941 226.881C99.1392 230.04 92.76 235.94 89.0022 243.472L55.1402 310.053C44.4925 330.875 47.7003 350.804 63.3224 360.674C65.7214 362.223 68.3105 363.455 71.0255 364.34C78.6373 366.822 86.8855 366.503 94.2823 363.439C101.679 360.375 107.738 354.769 111.365 347.631L118.476 333.711C120.208 330.295 123.008 327.539 126.451 325.862C129.894 324.185 133.79 323.678 137.547 324.419C141.304 325.16 144.717 327.108 147.265 329.966C149.813 332.825 151.357 336.438 151.663 340.255C152.105 348.809 154.941 357.066 159.848 364.086C164.755 371.106 171.537 376.606 179.418 379.958C190.407 384.402 202.672 384.517 213.742 380.278C224.812 376.04 233.865 367.764 239.076 357.118L296.539 244.187C297.016 243.217 297.684 242.354 298.504 241.649C299.324 240.945 300.278 240.413 301.308 240.087C303.403 239.425 305.673 239.602 307.638 240.582C309.211 241.406 310.48 242.71 311.259 244.306C312.038 245.901 312.286 247.704 311.967 249.451C310.229 259.442 311.847 269.727 316.568 278.702C321.289 287.677 328.848 294.838 338.065 299.066C349.118 303.763 361.545 304.068 372.816 299.921C384.086 295.774 393.351 287.485 398.723 276.745L444.75 186.263C447.555 180.798 449.225 174.823 449.662 168.696C450.099 162.569 449.292 156.417 447.292 150.609ZM342.218 392.127C336.079 390.13 329.485 389.998 323.271 391.75C317.056 393.501 311.501 397.057 307.309 401.966C303.116 406.876 300.474 412.919 299.717 419.331C298.96 425.743 300.122 432.235 303.056 437.986C305.99 443.737 310.565 448.488 316.2 451.638C321.836 454.789 328.279 456.196 334.715 455.683C341.151 455.17 347.29 452.76 352.355 448.756C357.42 444.753 361.184 439.337 363.17 433.194C365.821 424.969 365.104 416.03 361.177 408.333C357.25 400.636 350.433 394.809 342.218 392.127Z" fill="white"/>
<path d="M341.098 345.55C342.436 341.446 342.526 337.037 341.358 332.881C340.19 328.726 337.816 325.01 334.536 322.203C331.256 319.397 327.218 317.626 322.931 317.115C318.645 316.604 314.304 317.375 310.456 319.332C306.608 321.288 303.426 324.342 301.314 328.106C299.201 331.87 298.252 336.177 298.587 340.48C298.922 344.784 300.526 348.892 303.195 352.284C305.865 355.676 309.48 358.201 313.584 359.539C319.088 361.312 325.07 360.836 330.225 358.215C335.379 355.595 339.288 351.042 341.098 345.55ZM186.058 144.551C192.195 146.548 198.786 146.68 204.998 144.931C211.21 143.181 216.764 139.629 220.958 134.724C225.151 129.818 227.795 123.779 228.557 117.37C229.318 110.962 228.161 104.471 225.234 98.7199C222.306 92.9684 217.739 88.2143 212.11 85.0585C206.48 81.9028 200.041 80.4873 193.607 80.991C187.173 81.4947 181.033 83.895 175.963 87.8883C170.894 91.8816 167.122 97.2886 165.125 103.426C162.459 111.655 163.166 120.606 167.09 128.315C171.014 136.025 177.835 141.863 186.058 144.551ZM130.339 195.671C134.451 197.004 138.866 197.089 143.026 195.913C147.186 194.737 150.904 192.355 153.709 189.066C156.515 185.778 158.283 181.731 158.788 177.438C159.294 173.145 158.515 168.798 156.551 164.947C154.586 161.097 151.524 157.915 147.751 155.805C143.979 153.695 139.665 152.751 135.356 153.092C131.046 153.434 126.935 155.045 123.542 157.723C120.148 160.401 117.625 164.026 116.292 168.137C115.405 170.868 115.064 173.746 115.29 176.608C115.516 179.469 116.304 182.259 117.609 184.816C118.913 187.373 120.709 189.648 122.893 191.51C125.078 193.373 127.608 194.787 130.339 195.671Z" fill="white"/>
</g>
</g>
<defs>
<clipPath id="clip0_72_121">
<rect width="395.144" height="395.144" fill="white" transform="translate(122.579 0.0549316) rotate(17.9695)"/>
</clipPath>
</defs>
</svg>
