<svg width="113" height="113" viewBox="0 0 113 113" fill="none" xmlns="http://www.w3.org/2000/svg">
<g opacity="0.1" clip-path="url(#clip0_72_127)">
<g filter="url(#filter0_i_72_127)">
<path d="M97.0099 76.4689L61.5107 56.4998L97.0099 36.5308C97.5532 36.1993 97.9465 35.6698 98.1072 35.054C98.2679 34.4382 98.1833 33.7841 97.8712 33.2294C97.5592 32.6748 97.0441 32.2628 96.4343 32.0804C95.8246 31.898 95.1679 31.9594 94.6025 32.2515L58.9584 52.3017V12.2824C58.9584 11.6309 58.6996 11.0061 58.2389 10.5454C57.7782 10.0847 57.1534 9.82593 56.5019 9.82593C55.8504 9.82593 55.2255 10.0847 54.7648 10.5454C54.3042 11.0061 54.0453 11.6309 54.0453 12.2824V52.3017L18.4012 32.2515C17.8358 31.9594 17.1791 31.898 16.5694 32.0804C15.9597 32.2628 15.4445 32.6748 15.1325 33.2294C14.8205 33.7841 14.7359 34.4382 14.8965 35.054C15.0572 35.6698 15.4506 36.1993 15.9938 36.5308L51.493 56.4998L15.9938 76.4689C15.5212 76.7355 15.1502 77.151 14.9386 77.6507C14.727 78.1503 14.6868 78.706 14.8243 79.2309C14.9618 79.7558 15.2691 80.2204 15.6985 80.5522C16.1278 80.884 16.6549 81.0644 17.1975 81.0651C17.6187 81.0657 18.0327 80.9564 18.3988 80.7482L54.0453 60.698V100.717C54.0453 101.369 54.3042 101.994 54.7648 102.454C55.2255 102.915 55.8504 103.174 56.5019 103.174C57.1534 103.174 57.7782 102.915 58.2389 102.454C58.6996 101.994 58.9584 101.369 58.9584 100.717V60.698L94.6025 80.7482C94.9693 80.9568 95.3842 81.0661 95.8062 81.0651C96.349 81.0649 96.8765 80.885 97.3063 80.5534C97.736 80.2217 98.0438 79.7571 98.1816 79.2321C98.3194 78.707 98.2794 78.1512 98.0678 77.6513C97.8563 77.1514 97.4827 76.7356 97.0099 76.4689Z" fill="url(#paint0_linear_72_127)"/>
</g>
<g filter="url(#filter1_bi_72_127)">
<path d="M56.4994 68.783C54.0701 68.783 51.6954 68.0626 49.6756 66.713C47.6557 65.3634 46.0814 63.4451 45.1518 61.2007C44.2221 58.9564 43.9789 56.4868 44.4528 54.1042C44.9267 51.7216 46.0965 49.533 47.8143 47.8153C49.5321 46.0975 51.7206 44.9277 54.1032 44.4538C56.4858 43.9799 58.9554 44.2231 61.1998 45.1527C63.4441 46.0824 65.3624 47.6567 66.712 49.6765C68.0617 51.6964 68.782 54.0711 68.782 56.5004C68.7781 59.7567 67.4828 62.8786 65.1802 65.1812C62.8776 67.4838 59.7558 68.7791 56.4994 68.783Z" fill="#F1F1F1" fill-opacity="0.1"/>
<path d="M56.4994 68.783C54.0701 68.783 51.6954 68.0626 49.6756 66.713C47.6557 65.3634 46.0814 63.4451 45.1518 61.2007C44.2221 58.9564 43.9789 56.4868 44.4528 54.1042C44.9267 51.7216 46.0965 49.533 47.8143 47.8153C49.5321 46.0975 51.7206 44.9277 54.1032 44.4538C56.4858 43.9799 58.9554 44.2231 61.1998 45.1527C63.4441 46.0824 65.3624 47.6567 66.712 49.6765C68.0617 51.6964 68.782 54.0711 68.782 56.5004C68.7781 59.7567 67.4828 62.8786 65.1802 65.1812C62.8776 67.4838 59.7558 68.7791 56.4994 68.783Z" fill="url(#paint1_linear_72_127)" fill-opacity="0.2"/>
<path d="M56.4986 68.0768C54.2093 68.0766 51.9714 67.3977 50.0679 66.1258C48.1642 64.8538 46.6804 63.0458 45.8043 60.9305C44.9281 58.8152 44.6988 56.4875 45.1455 54.242C45.5922 51.9964 46.6947 49.9337 48.3137 48.3147C49.9327 46.6957 51.9954 45.5931 54.241 45.1465C56.4866 44.6998 58.8142 44.929 60.9295 45.8052C63.0448 46.6814 64.8528 48.1652 66.1248 50.0689C67.3967 51.9724 68.0756 54.2103 68.0758 56.4995C68.0721 59.5689 66.8512 62.5115 64.6808 64.6818C62.5105 66.8522 59.5679 68.0731 56.4986 68.0768Z" stroke="url(#paint2_linear_72_127)" stroke-opacity="0.1" stroke-width="1.4125"/>
</g>
<g filter="url(#filter2_bi_72_127)">
<path d="M95.8041 46.6739C102.588 46.6739 108.087 41.1748 108.087 34.3913C108.087 27.6078 102.588 22.1086 95.8041 22.1086C89.0206 22.1086 83.5215 27.6078 83.5215 34.3913C83.5215 41.1748 89.0206 46.6739 95.8041 46.6739Z" fill="#F1F1F1" fill-opacity="0.1"/>
<path d="M95.8041 46.6739C102.588 46.6739 108.087 41.1748 108.087 34.3913C108.087 27.6078 102.588 22.1086 95.8041 22.1086C89.0206 22.1086 83.5215 27.6078 83.5215 34.3913C83.5215 41.1748 89.0206 46.6739 95.8041 46.6739Z" fill="url(#paint3_linear_72_127)" fill-opacity="0.2"/>
<path d="M107.38 34.3913C107.38 40.7847 102.198 45.9676 95.8041 45.9676C89.4106 45.9676 84.2277 40.7847 84.2277 34.3913C84.2277 27.9978 89.4106 22.8149 95.8041 22.8149C102.198 22.8149 107.38 27.9978 107.38 34.3913Z" stroke="url(#paint4_linear_72_127)" stroke-opacity="0.1" stroke-width="1.4125"/>
</g>
<g filter="url(#filter3_i_72_127)">
<path d="M95.8042 81.065C95.1527 81.065 94.5278 80.8062 94.0672 80.3455C93.6065 79.8848 93.3477 79.26 93.3477 78.6085V34.3911C93.3477 33.7396 93.6065 33.1148 94.0672 32.6541C94.5278 32.1934 95.1527 31.9346 95.8042 31.9346C96.4557 31.9346 97.0805 32.1934 97.5412 32.6541C98.0019 33.1148 98.2607 33.7396 98.2607 34.3911V78.6085C98.2607 79.26 98.0019 79.8848 97.5412 80.3455C97.0805 80.8062 96.4557 81.065 95.8042 81.065Z" fill="url(#paint5_linear_72_127)"/>
</g>
<g filter="url(#filter4_bi_72_127)">
<path d="M95.8041 90.8911C102.588 90.8911 108.087 85.392 108.087 78.6085C108.087 71.825 102.588 66.3259 95.8041 66.3259C89.0206 66.3259 83.5215 71.825 83.5215 78.6085C83.5215 85.392 89.0206 90.8911 95.8041 90.8911Z" fill="#F1F1F1" fill-opacity="0.1"/>
<path d="M95.8041 90.8911C102.588 90.8911 108.087 85.392 108.087 78.6085C108.087 71.825 102.588 66.3259 95.8041 66.3259C89.0206 66.3259 83.5215 71.825 83.5215 78.6085C83.5215 85.392 89.0206 90.8911 95.8041 90.8911Z" fill="url(#paint6_linear_72_127)" fill-opacity="0.2"/>
<path d="M107.38 78.6085C107.38 85.002 102.198 90.1849 95.8041 90.1849C89.4106 90.1849 84.2277 85.002 84.2277 78.6085C84.2277 72.2151 89.4106 67.0322 95.8041 67.0322C102.198 67.0322 107.38 72.2151 107.38 78.6085Z" stroke="url(#paint7_linear_72_127)" stroke-opacity="0.1" stroke-width="1.4125"/>
</g>
<g filter="url(#filter5_i_72_127)">
<path d="M56.4988 103.174C55.956 103.174 55.4285 102.994 54.9988 102.663C54.569 102.331 54.2612 101.866 54.1234 101.341C53.9856 100.816 54.0256 100.26 54.2372 99.7605C54.4487 99.2606 54.8199 98.8448 55.2926 98.5782L94.597 76.4695C95.1624 76.1773 95.8191 76.116 96.4288 76.2984C97.0385 76.4808 97.5537 76.8927 97.8657 77.4474C98.1777 78.0021 98.2623 78.6562 98.1017 79.272C97.941 79.8878 97.5476 80.4172 97.0044 80.7487L57.7 102.857C57.334 103.066 56.9199 103.175 56.4988 103.174Z" fill="url(#paint8_linear_72_127)"/>
</g>
<g filter="url(#filter6_bi_72_127)">
<path d="M56.4994 113C63.2829 113 68.782 107.501 68.782 100.717C68.782 93.9339 63.2829 88.4348 56.4994 88.4348C49.7159 88.4348 44.2168 93.9339 44.2168 100.717C44.2168 107.501 49.7159 113 56.4994 113Z" fill="#F1F1F1" fill-opacity="0.1"/>
<path d="M56.4994 113C63.2829 113 68.782 107.501 68.782 100.717C68.782 93.9339 63.2829 88.4348 56.4994 88.4348C49.7159 88.4348 44.2168 93.9339 44.2168 100.717C44.2168 107.501 49.7159 113 56.4994 113Z" fill="url(#paint9_linear_72_127)" fill-opacity="0.2"/>
<path d="M68.0758 100.717C68.0758 107.111 62.8929 112.294 56.4994 112.294C50.106 112.294 44.923 107.111 44.923 100.717C44.923 94.324 50.106 89.1411 56.4994 89.1411C62.8929 89.1411 68.0758 94.324 68.0758 100.717Z" stroke="url(#paint10_linear_72_127)" stroke-opacity="0.1" stroke-width="1.4125"/>
</g>
<g filter="url(#filter7_i_72_127)">
<path d="M56.4989 103.174C56.0777 103.175 55.6637 103.066 55.2976 102.857L15.9933 80.7487C15.45 80.4172 15.0566 79.8878 14.896 79.272C14.7353 78.6562 14.8199 78.0021 15.132 77.4474C15.444 76.8927 15.9591 76.4808 16.5688 76.2984C17.1786 76.116 17.8353 76.1773 18.4007 76.4695L57.705 98.5782C58.1778 98.8448 58.549 99.2606 58.7605 99.7605C58.972 100.26 59.012 100.816 58.8742 101.341C58.7364 101.866 58.4286 102.331 57.9989 102.663C57.5692 102.994 57.0417 103.174 56.4989 103.174Z" fill="url(#paint11_linear_72_127)"/>
</g>
<g filter="url(#filter8_bi_72_127)">
<path d="M17.1957 90.8911C23.9792 90.8911 29.4783 85.392 29.4783 78.6085C29.4783 71.825 23.9792 66.3259 17.1957 66.3259C10.4122 66.3259 4.91309 71.825 4.91309 78.6085C4.91309 85.392 10.4122 90.8911 17.1957 90.8911Z" fill="#F1F1F1" fill-opacity="0.1"/>
<path d="M17.1957 90.8911C23.9792 90.8911 29.4783 85.392 29.4783 78.6085C29.4783 71.825 23.9792 66.3259 17.1957 66.3259C10.4122 66.3259 4.91309 71.825 4.91309 78.6085C4.91309 85.392 10.4122 90.8911 17.1957 90.8911Z" fill="url(#paint12_linear_72_127)" fill-opacity="0.2"/>
<path d="M28.7721 78.6085C28.7721 85.002 23.5891 90.1849 17.1957 90.1849C10.8022 90.1849 5.61934 85.002 5.61934 78.6085C5.61934 72.2151 10.8022 67.0322 17.1957 67.0322C23.5891 67.0322 28.7721 72.2151 28.7721 78.6085Z" stroke="url(#paint13_linear_72_127)" stroke-opacity="0.1" stroke-width="1.4125"/>
</g>
<g filter="url(#filter9_i_72_127)">
<path d="M17.1958 81.065C16.5443 81.065 15.9194 80.8062 15.4588 80.3455C14.9981 79.8848 14.7393 79.26 14.7393 78.6085V34.3911C14.7393 33.7396 14.9981 33.1148 15.4588 32.6541C15.9194 32.1934 16.5443 31.9346 17.1958 31.9346C17.8473 31.9346 18.4721 32.1934 18.9328 32.6541C19.3935 33.1148 19.6523 33.7396 19.6523 34.3911V78.6085C19.6523 79.26 19.3935 79.8848 18.9328 80.3455C18.4721 80.8062 17.8473 81.065 17.1958 81.065Z" fill="url(#paint14_linear_72_127)"/>
</g>
<g filter="url(#filter10_bi_72_127)">
<path d="M17.1957 46.6739C23.9792 46.6739 29.4783 41.1748 29.4783 34.3913C29.4783 27.6078 23.9792 22.1086 17.1957 22.1086C10.4122 22.1086 4.91309 27.6078 4.91309 34.3913C4.91309 41.1748 10.4122 46.6739 17.1957 46.6739Z" fill="#F1F1F1" fill-opacity="0.1"/>
<path d="M17.1957 46.6739C23.9792 46.6739 29.4783 41.1748 29.4783 34.3913C29.4783 27.6078 23.9792 22.1086 17.1957 22.1086C10.4122 22.1086 4.91309 27.6078 4.91309 34.3913C4.91309 41.1748 10.4122 46.6739 17.1957 46.6739Z" fill="url(#paint15_linear_72_127)" fill-opacity="0.2"/>
<path d="M28.7721 34.3913C28.7721 40.7847 23.5891 45.9676 17.1957 45.9676C10.8022 45.9676 5.61934 40.7847 5.61934 34.3913C5.61934 27.9978 10.8022 22.8149 17.1957 22.8149C23.5891 22.8149 28.7721 27.9978 28.7721 34.3913Z" stroke="url(#paint16_linear_72_127)" stroke-opacity="0.1" stroke-width="1.4125"/>
</g>
<g filter="url(#filter11_i_72_127)">
<path d="M17.1951 36.8472C16.6523 36.847 16.1248 36.6671 15.695 36.3355C15.2653 36.0039 14.9575 35.5393 14.8197 35.0142C14.6819 34.4892 14.7219 33.9333 14.9335 33.4334C15.145 32.9335 15.5161 32.5177 15.9889 32.251L55.2933 10.1423C55.5749 9.97047 55.8883 9.8571 56.2147 9.80898C56.5411 9.76086 56.8738 9.77899 57.1931 9.86228C57.5123 9.94557 57.8115 10.0923 58.0728 10.2938C58.3341 10.4952 58.5522 10.7472 58.7139 11.0348C58.8757 11.3223 58.9779 11.6395 59.0144 11.9674C59.0509 12.2953 59.021 12.6272 58.9264 12.9433C58.8318 13.2594 58.6746 13.5532 58.464 13.8072C58.2534 14.0612 57.9938 14.2701 57.7007 14.4216L18.3963 36.5303C18.0303 36.7386 17.6162 36.8478 17.1951 36.8472Z" fill="url(#paint17_linear_72_127)"/>
</g>
<g filter="url(#filter12_bi_72_127)">
<path d="M56.4994 24.5652C63.2829 24.5652 68.782 19.0661 68.782 12.2826C68.782 5.49911 63.2829 0 56.4994 0C49.7159 0 44.2168 5.49911 44.2168 12.2826C44.2168 19.0661 49.7159 24.5652 56.4994 24.5652Z" fill="#F1F1F1" fill-opacity="0.1"/>
<path d="M56.4994 24.5652C63.2829 24.5652 68.782 19.0661 68.782 12.2826C68.782 5.49911 63.2829 0 56.4994 0C49.7159 0 44.2168 5.49911 44.2168 12.2826C44.2168 19.0661 49.7159 24.5652 56.4994 24.5652Z" fill="url(#paint18_linear_72_127)" fill-opacity="0.2"/>
<path d="M68.0758 12.2826C68.0758 18.6761 62.8929 23.859 56.4994 23.859C50.106 23.859 44.923 18.6761 44.923 12.2826C44.923 5.88916 50.106 0.70625 56.4994 0.70625C62.8929 0.70625 68.0758 5.88916 68.0758 12.2826Z" stroke="url(#paint19_linear_72_127)" stroke-opacity="0.1" stroke-width="1.4125"/>
</g>
<g filter="url(#filter13_i_72_127)">
<path d="M86.566 26.3782L57.7044 10.1431C57.139 9.85089 56.4823 9.78955 55.8726 9.97197C55.2628 10.1544 54.7477 10.5663 54.4357 11.121C54.1236 11.6756 54.039 12.3298 54.1997 12.9456C54.3604 13.5614 54.7537 14.0908 55.297 14.4223L84.1611 30.6599C84.6635 29.0841 85.4818 27.6272 86.566 26.3782Z" fill="url(#paint20_linear_72_127)"/>
</g>
</g>
<defs>
<filter id="filter0_i_72_127" x="14.7441" y="9.82593" width="83.5176" height="102.765" filterUnits="userSpaceOnUse" color-interpolation-filters="sRGB">
<feFlood flood-opacity="0" result="BackgroundImageFix"/>
<feBlend mode="normal" in="SourceGraphic" in2="BackgroundImageFix" result="shape"/>
<feColorMatrix in="SourceAlpha" type="matrix" values="0 0 0 0 0 0 0 0 0 0 0 0 0 0 0 0 0 0 127 0" result="hardAlpha"/>
<feOffset dy="9.41667"/>
<feGaussianBlur stdDeviation="4.70833"/>
<feComposite in2="hardAlpha" operator="arithmetic" k2="-1" k3="1"/>
<feColorMatrix type="matrix" values="0 0 0 0 1 0 0 0 0 1 0 0 0 0 1 0 0 0 0.4 0"/>
<feBlend mode="normal" in2="shape" result="effect1_innerShadow_72_127"/>
</filter>
<filter id="filter1_bi_72_127" x="15.9668" y="15.9678" width="81.0654" height="81.0652" filterUnits="userSpaceOnUse" color-interpolation-filters="sRGB">
<feFlood flood-opacity="0" result="BackgroundImageFix"/>
<feGaussianBlur in="BackgroundImageFix" stdDeviation="14.125"/>
<feComposite in2="SourceAlpha" operator="in" result="effect1_backgroundBlur_72_127"/>
<feBlend mode="normal" in="SourceGraphic" in2="effect1_backgroundBlur_72_127" result="shape"/>
<feColorMatrix in="SourceAlpha" type="matrix" values="0 0 0 0 0 0 0 0 0 0 0 0 0 0 0 0 0 0 127 0" result="hardAlpha"/>
<feOffset dy="9.41667"/>
<feGaussianBlur stdDeviation="7.0625"/>
<feComposite in2="hardAlpha" operator="arithmetic" k2="-1" k3="1"/>
<feColorMatrix type="matrix" values="0 0 0 0 1 0 0 0 0 1 0 0 0 0 1 0 0 0 0.4 0"/>
<feBlend mode="normal" in2="shape" result="effect2_innerShadow_72_127"/>
</filter>
<filter id="filter2_bi_72_127" x="55.2715" y="-6.14136" width="81.0654" height="81.0652" filterUnits="userSpaceOnUse" color-interpolation-filters="sRGB">
<feFlood flood-opacity="0" result="BackgroundImageFix"/>
<feGaussianBlur in="BackgroundImageFix" stdDeviation="14.125"/>
<feComposite in2="SourceAlpha" operator="in" result="effect1_backgroundBlur_72_127"/>
<feBlend mode="normal" in="SourceGraphic" in2="effect1_backgroundBlur_72_127" result="shape"/>
<feColorMatrix in="SourceAlpha" type="matrix" values="0 0 0 0 0 0 0 0 0 0 0 0 0 0 0 0 0 0 127 0" result="hardAlpha"/>
<feOffset dy="9.41667"/>
<feGaussianBlur stdDeviation="7.0625"/>
<feComposite in2="hardAlpha" operator="arithmetic" k2="-1" k3="1"/>
<feColorMatrix type="matrix" values="0 0 0 0 1 0 0 0 0 1 0 0 0 0 1 0 0 0 0.4 0"/>
<feBlend mode="normal" in2="shape" result="effect2_innerShadow_72_127"/>
</filter>
<filter id="filter3_i_72_127" x="93.3477" y="31.9346" width="4.91309" height="58.547" filterUnits="userSpaceOnUse" color-interpolation-filters="sRGB">
<feFlood flood-opacity="0" result="BackgroundImageFix"/>
<feBlend mode="normal" in="SourceGraphic" in2="BackgroundImageFix" result="shape"/>
<feColorMatrix in="SourceAlpha" type="matrix" values="0 0 0 0 0 0 0 0 0 0 0 0 0 0 0 0 0 0 127 0" result="hardAlpha"/>
<feOffset dy="9.41667"/>
<feGaussianBlur stdDeviation="4.70833"/>
<feComposite in2="hardAlpha" operator="arithmetic" k2="-1" k3="1"/>
<feColorMatrix type="matrix" values="0 0 0 0 1 0 0 0 0 1 0 0 0 0 1 0 0 0 0.4 0"/>
<feBlend mode="normal" in2="shape" result="effect1_innerShadow_72_127"/>
</filter>
<filter id="filter4_bi_72_127" x="55.2715" y="38.0759" width="81.0654" height="81.0652" filterUnits="userSpaceOnUse" color-interpolation-filters="sRGB">
<feFlood flood-opacity="0" result="BackgroundImageFix"/>
<feGaussianBlur in="BackgroundImageFix" stdDeviation="14.125"/>
<feComposite in2="SourceAlpha" operator="in" result="effect1_backgroundBlur_72_127"/>
<feBlend mode="normal" in="SourceGraphic" in2="effect1_backgroundBlur_72_127" result="shape"/>
<feColorMatrix in="SourceAlpha" type="matrix" values="0 0 0 0 0 0 0 0 0 0 0 0 0 0 0 0 0 0 127 0" result="hardAlpha"/>
<feOffset dy="9.41667"/>
<feGaussianBlur stdDeviation="7.0625"/>
<feComposite in2="hardAlpha" operator="arithmetic" k2="-1" k3="1"/>
<feColorMatrix type="matrix" values="0 0 0 0 1 0 0 0 0 1 0 0 0 0 1 0 0 0 0.4 0"/>
<feBlend mode="normal" in2="shape" result="effect2_innerShadow_72_127"/>
</filter>
<filter id="filter5_i_72_127" x="54.043" y="76.1953" width="44.1387" height="36.3957" filterUnits="userSpaceOnUse" color-interpolation-filters="sRGB">
<feFlood flood-opacity="0" result="BackgroundImageFix"/>
<feBlend mode="normal" in="SourceGraphic" in2="BackgroundImageFix" result="shape"/>
<feColorMatrix in="SourceAlpha" type="matrix" values="0 0 0 0 0 0 0 0 0 0 0 0 0 0 0 0 0 0 127 0" result="hardAlpha"/>
<feOffset dy="9.41667"/>
<feGaussianBlur stdDeviation="4.70833"/>
<feComposite in2="hardAlpha" operator="arithmetic" k2="-1" k3="1"/>
<feColorMatrix type="matrix" values="0 0 0 0 1 0 0 0 0 1 0 0 0 0 1 0 0 0 0.4 0"/>
<feBlend mode="normal" in2="shape" result="effect1_innerShadow_72_127"/>
</filter>
<filter id="filter6_bi_72_127" x="15.9668" y="60.1848" width="81.0654" height="81.0652" filterUnits="userSpaceOnUse" color-interpolation-filters="sRGB">
<feFlood flood-opacity="0" result="BackgroundImageFix"/>
<feGaussianBlur in="BackgroundImageFix" stdDeviation="14.125"/>
<feComposite in2="SourceAlpha" operator="in" result="effect1_backgroundBlur_72_127"/>
<feBlend mode="normal" in="SourceGraphic" in2="effect1_backgroundBlur_72_127" result="shape"/>
<feColorMatrix in="SourceAlpha" type="matrix" values="0 0 0 0 0 0 0 0 0 0 0 0 0 0 0 0 0 0 127 0" result="hardAlpha"/>
<feOffset dy="9.41667"/>
<feGaussianBlur stdDeviation="7.0625"/>
<feComposite in2="hardAlpha" operator="arithmetic" k2="-1" k3="1"/>
<feColorMatrix type="matrix" values="0 0 0 0 1 0 0 0 0 1 0 0 0 0 1 0 0 0 0.4 0"/>
<feBlend mode="normal" in2="shape" result="effect2_innerShadow_72_127"/>
</filter>
<filter id="filter7_i_72_127" x="14.8164" y="76.1953" width="44.1387" height="36.3957" filterUnits="userSpaceOnUse" color-interpolation-filters="sRGB">
<feFlood flood-opacity="0" result="BackgroundImageFix"/>
<feBlend mode="normal" in="SourceGraphic" in2="BackgroundImageFix" result="shape"/>
<feColorMatrix in="SourceAlpha" type="matrix" values="0 0 0 0 0 0 0 0 0 0 0 0 0 0 0 0 0 0 127 0" result="hardAlpha"/>
<feOffset dy="9.41667"/>
<feGaussianBlur stdDeviation="4.70833"/>
<feComposite in2="hardAlpha" operator="arithmetic" k2="-1" k3="1"/>
<feColorMatrix type="matrix" values="0 0 0 0 1 0 0 0 0 1 0 0 0 0 1 0 0 0 0.4 0"/>
<feBlend mode="normal" in2="shape" result="effect1_innerShadow_72_127"/>
</filter>
<filter id="filter8_bi_72_127" x="-23.3369" y="38.0759" width="81.0654" height="81.0652" filterUnits="userSpaceOnUse" color-interpolation-filters="sRGB">
<feFlood flood-opacity="0" result="BackgroundImageFix"/>
<feGaussianBlur in="BackgroundImageFix" stdDeviation="14.125"/>
<feComposite in2="SourceAlpha" operator="in" result="effect1_backgroundBlur_72_127"/>
<feBlend mode="normal" in="SourceGraphic" in2="effect1_backgroundBlur_72_127" result="shape"/>
<feColorMatrix in="SourceAlpha" type="matrix" values="0 0 0 0 0 0 0 0 0 0 0 0 0 0 0 0 0 0 127 0" result="hardAlpha"/>
<feOffset dy="9.41667"/>
<feGaussianBlur stdDeviation="7.0625"/>
<feComposite in2="hardAlpha" operator="arithmetic" k2="-1" k3="1"/>
<feColorMatrix type="matrix" values="0 0 0 0 1 0 0 0 0 1 0 0 0 0 1 0 0 0 0.4 0"/>
<feBlend mode="normal" in2="shape" result="effect2_innerShadow_72_127"/>
</filter>
<filter id="filter9_i_72_127" x="14.7393" y="31.9346" width="4.91309" height="58.547" filterUnits="userSpaceOnUse" color-interpolation-filters="sRGB">
<feFlood flood-opacity="0" result="BackgroundImageFix"/>
<feBlend mode="normal" in="SourceGraphic" in2="BackgroundImageFix" result="shape"/>
<feColorMatrix in="SourceAlpha" type="matrix" values="0 0 0 0 0 0 0 0 0 0 0 0 0 0 0 0 0 0 127 0" result="hardAlpha"/>
<feOffset dy="9.41667"/>
<feGaussianBlur stdDeviation="4.70833"/>
<feComposite in2="hardAlpha" operator="arithmetic" k2="-1" k3="1"/>
<feColorMatrix type="matrix" values="0 0 0 0 1 0 0 0 0 1 0 0 0 0 1 0 0 0 0.4 0"/>
<feBlend mode="normal" in2="shape" result="effect1_innerShadow_72_127"/>
</filter>
<filter id="filter10_bi_72_127" x="-23.3369" y="-6.14136" width="81.0654" height="81.0652" filterUnits="userSpaceOnUse" color-interpolation-filters="sRGB">
<feFlood flood-opacity="0" result="BackgroundImageFix"/>
<feGaussianBlur in="BackgroundImageFix" stdDeviation="14.125"/>
<feComposite in2="SourceAlpha" operator="in" result="effect1_backgroundBlur_72_127"/>
<feBlend mode="normal" in="SourceGraphic" in2="effect1_backgroundBlur_72_127" result="shape"/>
<feColorMatrix in="SourceAlpha" type="matrix" values="0 0 0 0 0 0 0 0 0 0 0 0 0 0 0 0 0 0 127 0" result="hardAlpha"/>
<feOffset dy="9.41667"/>
<feGaussianBlur stdDeviation="7.0625"/>
<feComposite in2="hardAlpha" operator="arithmetic" k2="-1" k3="1"/>
<feColorMatrix type="matrix" values="0 0 0 0 1 0 0 0 0 1 0 0 0 0 1 0 0 0 0.4 0"/>
<feBlend mode="normal" in2="shape" result="effect2_innerShadow_72_127"/>
</filter>
<filter id="filter11_i_72_127" x="14.7393" y="9.78271" width="44.29" height="36.4811" filterUnits="userSpaceOnUse" color-interpolation-filters="sRGB">
<feFlood flood-opacity="0" result="BackgroundImageFix"/>
<feBlend mode="normal" in="SourceGraphic" in2="BackgroundImageFix" result="shape"/>
<feColorMatrix in="SourceAlpha" type="matrix" values="0 0 0 0 0 0 0 0 0 0 0 0 0 0 0 0 0 0 127 0" result="hardAlpha"/>
<feOffset dy="9.41667"/>
<feGaussianBlur stdDeviation="4.70833"/>
<feComposite in2="hardAlpha" operator="arithmetic" k2="-1" k3="1"/>
<feColorMatrix type="matrix" values="0 0 0 0 1 0 0 0 0 1 0 0 0 0 1 0 0 0 0.4 0"/>
<feBlend mode="normal" in2="shape" result="effect1_innerShadow_72_127"/>
</filter>
<filter id="filter12_bi_72_127" x="15.9668" y="-28.25" width="81.0654" height="81.0652" filterUnits="userSpaceOnUse" color-interpolation-filters="sRGB">
<feFlood flood-opacity="0" result="BackgroundImageFix"/>
<feGaussianBlur in="BackgroundImageFix" stdDeviation="14.125"/>
<feComposite in2="SourceAlpha" operator="in" result="effect1_backgroundBlur_72_127"/>
<feBlend mode="normal" in="SourceGraphic" in2="effect1_backgroundBlur_72_127" result="shape"/>
<feColorMatrix in="SourceAlpha" type="matrix" values="0 0 0 0 0 0 0 0 0 0 0 0 0 0 0 0 0 0 127 0" result="hardAlpha"/>
<feOffset dy="9.41667"/>
<feGaussianBlur stdDeviation="7.0625"/>
<feComposite in2="hardAlpha" operator="arithmetic" k2="-1" k3="1"/>
<feColorMatrix type="matrix" values="0 0 0 0 1 0 0 0 0 1 0 0 0 0 1 0 0 0 0.4 0"/>
<feBlend mode="normal" in2="shape" result="effect2_innerShadow_72_127"/>
</filter>
<filter id="filter13_i_72_127" x="54.1201" y="9.8689" width="32.4463" height="30.2077" filterUnits="userSpaceOnUse" color-interpolation-filters="sRGB">
<feFlood flood-opacity="0" result="BackgroundImageFix"/>
<feBlend mode="normal" in="SourceGraphic" in2="BackgroundImageFix" result="shape"/>
<feColorMatrix in="SourceAlpha" type="matrix" values="0 0 0 0 0 0 0 0 0 0 0 0 0 0 0 0 0 0 127 0" result="hardAlpha"/>
<feOffset dy="9.41667"/>
<feGaussianBlur stdDeviation="4.70833"/>
<feComposite in2="hardAlpha" operator="arithmetic" k2="-1" k3="1"/>
<feColorMatrix type="matrix" values="0 0 0 0 1 0 0 0 0 1 0 0 0 0 1 0 0 0 0.4 0"/>
<feBlend mode="normal" in2="shape" result="effect1_innerShadow_72_127"/>
</filter>
<linearGradient id="paint0_linear_72_127" x1="18.2241" y1="28.4955" x2="109.611" y2="39.8515" gradientUnits="userSpaceOnUse">
<stop stop-color="#8AE6CF"/>
<stop offset="1" stop-color="#7C3AE7"/>
</linearGradient>
<linearGradient id="paint1_linear_72_127" x1="45.2403" y1="49.1308" x2="72.0185" y2="52.85" gradientUnits="userSpaceOnUse">
<stop stop-color="#66FECB"/>
<stop offset="1" stop-color="#8940FF"/>
</linearGradient>
<linearGradient id="paint2_linear_72_127" x1="44.9845" y1="45.3344" x2="68.782" y2="45.3344" gradientUnits="userSpaceOnUse">
<stop stop-color="#C8A6FF"/>
<stop offset="1" stop-color="#69CFB5"/>
</linearGradient>
<linearGradient id="paint3_linear_72_127" x1="84.545" y1="27.0217" x2="111.323" y2="30.7409" gradientUnits="userSpaceOnUse">
<stop stop-color="#66FECB"/>
<stop offset="1" stop-color="#8940FF"/>
</linearGradient>
<linearGradient id="paint4_linear_72_127" x1="84.2891" y1="23.2252" x2="108.087" y2="23.2252" gradientUnits="userSpaceOnUse">
<stop stop-color="#C8A6FF"/>
<stop offset="1" stop-color="#69CFB5"/>
</linearGradient>
<linearGradient id="paint5_linear_72_127" x1="93.5524" y1="41.7607" x2="99.0103" y2="41.8365" gradientUnits="userSpaceOnUse">
<stop stop-color="#8AE6CF"/>
<stop offset="1" stop-color="#7C3AE7"/>
</linearGradient>
<linearGradient id="paint6_linear_72_127" x1="84.545" y1="71.239" x2="111.323" y2="74.9582" gradientUnits="userSpaceOnUse">
<stop stop-color="#66FECB"/>
<stop offset="1" stop-color="#8940FF"/>
</linearGradient>
<linearGradient id="paint7_linear_72_127" x1="84.2891" y1="67.4425" x2="108.087" y2="67.4425" gradientUnits="userSpaceOnUse">
<stop stop-color="#C8A6FF"/>
<stop offset="1" stop-color="#69CFB5"/>
</linearGradient>
<linearGradient id="paint8_linear_72_127" x1="55.8821" y1="81.5911" x2="102.517" y2="92.1877" gradientUnits="userSpaceOnUse">
<stop stop-color="#8AE6CF"/>
<stop offset="1" stop-color="#7C3AE7"/>
</linearGradient>
<linearGradient id="paint9_linear_72_127" x1="45.2403" y1="93.3479" x2="72.0185" y2="97.067" gradientUnits="userSpaceOnUse">
<stop stop-color="#66FECB"/>
<stop offset="1" stop-color="#8940FF"/>
</linearGradient>
<linearGradient id="paint10_linear_72_127" x1="44.9845" y1="89.5514" x2="68.782" y2="89.5514" gradientUnits="userSpaceOnUse">
<stop stop-color="#C8A6FF"/>
<stop offset="1" stop-color="#69CFB5"/>
</linearGradient>
<linearGradient id="paint11_linear_72_127" x1="16.6555" y1="81.5911" x2="63.2902" y2="92.1877" gradientUnits="userSpaceOnUse">
<stop stop-color="#8AE6CF"/>
<stop offset="1" stop-color="#7C3AE7"/>
</linearGradient>
<linearGradient id="paint12_linear_72_127" x1="5.93664" y1="71.239" x2="32.7148" y2="74.9582" gradientUnits="userSpaceOnUse">
<stop stop-color="#66FECB"/>
<stop offset="1" stop-color="#8940FF"/>
</linearGradient>
<linearGradient id="paint13_linear_72_127" x1="5.68075" y1="67.4425" x2="29.4783" y2="67.4425" gradientUnits="userSpaceOnUse">
<stop stop-color="#C8A6FF"/>
<stop offset="1" stop-color="#69CFB5"/>
</linearGradient>
<linearGradient id="paint14_linear_72_127" x1="14.944" y1="41.7607" x2="20.4019" y2="41.8365" gradientUnits="userSpaceOnUse">
<stop stop-color="#8AE6CF"/>
<stop offset="1" stop-color="#7C3AE7"/>
</linearGradient>
<linearGradient id="paint15_linear_72_127" x1="5.93664" y1="27.0217" x2="32.7148" y2="30.7409" gradientUnits="userSpaceOnUse">
<stop stop-color="#66FECB"/>
<stop offset="1" stop-color="#8940FF"/>
</linearGradient>
<linearGradient id="paint16_linear_72_127" x1="5.68075" y1="23.2252" x2="29.4783" y2="23.2252" gradientUnits="userSpaceOnUse">
<stop stop-color="#C8A6FF"/>
<stop offset="1" stop-color="#69CFB5"/>
</linearGradient>
<linearGradient id="paint17_linear_72_127" x1="16.5847" y1="15.1956" x2="63.3787" y2="25.8313" gradientUnits="userSpaceOnUse">
<stop stop-color="#8AE6CF"/>
<stop offset="1" stop-color="#7C3AE7"/>
</linearGradient>
<linearGradient id="paint18_linear_72_127" x1="45.2403" y1="4.91305" x2="72.0185" y2="8.63223" gradientUnits="userSpaceOnUse">
<stop stop-color="#66FECB"/>
<stop offset="1" stop-color="#8940FF"/>
</linearGradient>
<linearGradient id="paint19_linear_72_127" x1="44.9845" y1="1.1166" x2="68.782" y2="1.1166" gradientUnits="userSpaceOnUse">
<stop stop-color="#C8A6FF"/>
<stop offset="1" stop-color="#69CFB5"/>
</linearGradient>
<linearGradient id="paint20_linear_72_127" x1="55.472" y1="14.0271" x2="89.9054" y2="21.4904" gradientUnits="userSpaceOnUse">
<stop stop-color="#8AE6CF"/>
<stop offset="1" stop-color="#7C3AE7"/>
</linearGradient>
<clipPath id="clip0_72_127">
<rect width="113" height="113" fill="white"/>
</clipPath>
</defs>
</svg>
