<svg width="78" height="78" viewBox="0 0 78 78" fill="none" xmlns="http://www.w3.org/2000/svg">
<g filter="url(#filter0_b_72_12870)">
<circle cx="39" cy="39" r="39" fill="white" fill-opacity="0.03"/>
<circle cx="39" cy="39" r="38.5" stroke="url(#paint0_linear_72_12870)" stroke-opacity="0.1"/>
</g>
<path d="M35.8359 37.875H42.1641V39.9844H35.8359V37.875Z" fill="#36B0E0"/>
<path d="M50.2063 39.9844H44.2734V41.0391C44.2734 41.622 43.8016 42.0937 43.2188 42.0937H34.7812C34.1984 42.0937 33.7266 41.622 33.7266 41.0391V39.9844H27.7937C27.1296 39.9849 26.4822 39.7762 25.9434 39.3879C25.4046 38.9997 25.0018 38.4516 24.7922 37.8214L21 26.4429V49.4766C21 51.2212 22.4195 52.6406 24.1641 52.6406H53.8359C55.5806 52.6406 57 51.2212 57 49.4766V26.4437L53.2075 37.8214C52.998 38.4516 52.5953 38.9997 52.0565 39.388C51.5178 39.7762 50.8705 39.9849 50.2064 39.9844H50.2063Z" fill="#36B0E0"/>
<path d="M43.2185 21H34.781C33.0363 21 31.6169 22.4195 31.6169 24.1641V25.2188H22.8145L26.7923 37.154C26.8623 37.3641 26.9967 37.5468 27.1764 37.6762C27.3561 37.8056 27.5719 37.8751 27.7934 37.875H33.7263V36.8203C33.7263 36.2374 34.1981 35.7656 34.781 35.7656H43.2185C43.8014 35.7656 44.2732 36.2374 44.2732 36.8203V37.875H50.2061C50.6603 37.875 51.063 37.5855 51.2072 37.154L55.1853 25.2188H46.3826V24.1641C46.3826 22.4194 44.9632 21 43.2185 21ZM33.7263 25.2188V24.1641C33.7263 23.5821 34.199 23.1094 34.781 23.1094H43.2185C43.8005 23.1094 44.2732 23.5821 44.2732 24.1641V25.2188H33.7263Z" fill="#36B0E0"/>
<defs>
<filter id="filter0_b_72_12870" x="-118" y="-118" width="314" height="314" filterUnits="userSpaceOnUse" color-interpolation-filters="sRGB">
<feFlood flood-opacity="0" result="BackgroundImageFix"/>
<feGaussianBlur in="BackgroundImageFix" stdDeviation="59"/>
<feComposite in2="SourceAlpha" operator="in" result="effect1_backgroundBlur_72_12870"/>
<feBlend mode="normal" in="SourceGraphic" in2="effect1_backgroundBlur_72_12870" result="shape"/>
</filter>
<linearGradient id="paint0_linear_72_12870" x1="73.9629" y1="1.27005" x2="16.7787" y2="45.2004" gradientUnits="userSpaceOnUse">
<stop stop-color="white"/>
<stop offset="1" stop-color="#051014"/>
</linearGradient>
</defs>
</svg>
