<svg width="26" height="26" viewBox="0 0 26 26" fill="none" xmlns="http://www.w3.org/2000/svg">
<circle cx="12.777" cy="12.8183" r="12.3542" fill="#2F393D"/>
<path d="M14.0877 13.8417C13.8748 13.6698 13.6051 13.5841 13.3321 13.6015H11.4671V15.5102H13.3626C13.6273 15.518 13.8855 15.4277 14.0877 15.2569C14.1835 15.1645 14.2588 15.053 14.3084 14.9295C14.3581 14.8061 14.3811 14.6735 14.3759 14.5406C14.3806 14.4102 14.3573 14.2804 14.3075 14.1599C14.2578 14.0394 14.1829 13.9309 14.0877 13.8417ZM13.8256 12.61C13.9137 12.5316 13.983 12.4343 14.0283 12.3254C14.0737 12.2166 14.094 12.0989 14.0877 11.9811C14.1005 11.8622 14.0864 11.7419 14.0463 11.6292C14.0062 11.5166 13.9412 11.4144 13.8562 11.3303C13.6693 11.1974 13.4432 11.1313 13.2141 11.1425H11.4671V12.8284H13.2141C13.4431 12.8329 13.6662 12.7555 13.8431 12.61H13.8256ZM16.2715 7.98901H9.28321C8.81986 7.98901 8.37548 8.17308 8.04784 8.50072C7.7202 8.82836 7.53613 9.27274 7.53613 9.73609V16.7244C7.53613 17.1878 7.7202 17.6321 8.04784 17.9598C8.37548 18.2874 8.81986 18.4715 9.28321 18.4715H16.2715C16.7349 18.4715 17.1793 18.2874 17.5069 17.9598C17.8345 17.6321 18.0186 17.1878 18.0186 16.7244V9.73609C18.0186 9.27274 17.8345 8.82836 17.5069 8.50072C17.1793 8.17308 16.7349 7.98901 16.2715 7.98901ZM15.315 15.3486C15.2306 15.5611 15.0921 15.7478 14.9132 15.8902C14.7053 16.0557 14.4661 16.1775 14.21 16.2483C13.8797 16.3456 13.5365 16.3913 13.1923 16.3837H10.3839V10.269H13.3539C13.8202 10.2457 14.281 10.3778 14.6642 10.6446C14.8337 10.7797 14.9676 10.9542 15.0544 11.1529C15.1412 11.3515 15.1782 11.5684 15.1621 11.7845C15.1783 12.0625 15.1081 12.3386 14.9612 12.5751C14.7988 12.8035 14.5745 12.9808 14.3148 13.0861C14.4883 13.113 14.6549 13.1739 14.8048 13.2653C14.9547 13.3568 15.085 13.477 15.1883 13.619C15.3911 13.9269 15.4933 14.2901 15.481 14.6585C15.4745 14.8976 15.4179 15.1327 15.315 15.3486Z" fill="white"/>
</svg>
