<svg width="78" height="78" viewBox="0 0 78 78" fill="none" xmlns="http://www.w3.org/2000/svg">
<g filter="url(#filter0_b_72_12883)">
<circle cx="39" cy="39" r="39" fill="white" fill-opacity="0.03"/>
<circle cx="39" cy="39" r="38.5" stroke="url(#paint0_linear_72_12883)" stroke-opacity="0.1"/>
</g>
<g clip-path="url(#clip0_72_12883)">
<path fill-rule="evenodd" clip-rule="evenodd" d="M39.2332 25.5611L40.4298 28.7128C40.4465 28.7585 40.4764 28.7981 40.5158 28.8267C40.5552 28.8553 40.6021 28.8715 40.6507 28.8733L44.0178 29.0374C44.0685 29.0393 44.1173 29.0569 44.1576 29.0877C44.1979 29.1185 44.2277 29.161 44.2428 29.2094C44.259 29.2574 44.2599 29.3093 44.2454 29.3579C44.2309 29.4065 44.2018 29.4494 44.1619 29.4807L41.5343 31.5926C41.496 31.6226 41.4676 31.6633 41.4526 31.7096C41.4375 31.7558 41.4366 31.8055 41.4499 31.8523L42.3343 35.1053C42.362 35.2072 42.3257 35.3103 42.2403 35.3723C42.1549 35.4344 42.0456 35.4371 41.9572 35.3792L39.1367 33.5329C39.0963 33.5058 39.0488 33.4913 39.0002 33.4913C38.9515 33.4913 38.904 33.5058 38.8636 33.5329L36.0432 35.3792C36.0011 35.4075 35.9513 35.422 35.9006 35.4207C35.8499 35.4195 35.8009 35.4026 35.7602 35.3723C35.7188 35.343 35.6876 35.3016 35.6707 35.2538C35.6539 35.2059 35.6523 35.1541 35.6661 35.1053L36.5505 31.8523C36.5639 31.8055 36.5629 31.7558 36.5479 31.7096C36.5329 31.6633 36.5044 31.6226 36.4661 31.5926L33.8386 29.4807C33.7987 29.4494 33.7695 29.4065 33.755 29.3579C33.7405 29.3093 33.7415 29.2574 33.7577 29.2094C33.7728 29.161 33.8026 29.1185 33.8429 29.0877C33.8831 29.0569 33.932 29.0393 33.9826 29.0374L37.3497 28.8733C37.3983 28.8715 37.4453 28.8553 37.4847 28.8267C37.524 28.7981 37.5539 28.7585 37.5706 28.7128L38.7672 25.5611C38.8046 25.4624 38.8946 25.4004 39.0002 25.4004C39.1058 25.4004 39.1958 25.4624 39.2332 25.5611ZM32.7121 24.5697L34.8181 26.466C34.9351 26.5704 35.0887 26.6242 35.2452 26.6156C35.4018 26.607 35.5486 26.5367 35.6534 26.4202C35.7583 26.3036 35.8128 26.1503 35.8049 25.9937C35.797 25.8371 35.7274 25.6901 35.6113 25.5847L33.5053 23.6883C33.3883 23.5839 33.2347 23.5302 33.0781 23.5388C32.9216 23.5474 32.7748 23.6176 32.6699 23.7341C32.5651 23.8507 32.5106 24.004 32.5185 24.1606C32.5264 24.3172 32.596 24.4643 32.7121 24.5697ZM44.4951 23.6883L42.3767 25.5957C42.2606 25.7011 42.191 25.8482 42.1831 26.0048C42.1752 26.1614 42.2297 26.3147 42.3346 26.4312C42.4394 26.5478 42.5862 26.618 42.7428 26.6266C42.8993 26.6352 43.0529 26.5814 43.1699 26.4771L45.2882 24.5697C45.4043 24.4643 45.4739 24.3172 45.4818 24.1606C45.4897 24.004 45.4353 23.8507 45.3304 23.7341C45.2255 23.6176 45.0787 23.5474 44.9222 23.5388C44.7656 23.5302 44.6121 23.5839 44.4951 23.6883ZM39.594 23.1948C39.594 23.3523 39.5314 23.5033 39.42 23.6147C39.3087 23.726 39.1577 23.7886 39.0002 23.7886C38.8427 23.7886 38.6917 23.726 38.5804 23.6147C38.469 23.5033 38.4065 23.3523 38.4065 23.1948V21.0158C38.4065 20.8584 38.469 20.7073 38.5804 20.596C38.6917 20.4846 38.8427 20.4221 39.0002 20.4221C39.1577 20.4221 39.3087 20.4846 39.42 20.596C39.5314 20.7073 39.594 20.8584 39.594 21.0158V23.1948ZM39.0002 37.2844C41.3009 37.2844 43.166 39.1495 43.166 41.4501C43.166 43.7508 41.3009 45.6159 39.0002 45.6159C36.6995 45.6159 34.8344 43.7508 34.8344 41.4501C34.8344 39.1494 36.6995 37.2844 39.0002 37.2844ZM47.1919 53.7108C46.7495 49.5774 43.2509 46.3581 39.0002 46.3581C34.7494 46.3581 31.2508 49.5774 30.8085 53.7108V55.3762C30.8085 56.5889 31.7976 57.578 33.0103 57.578H44.99C46.2028 57.578 47.1919 56.5889 47.1919 55.3762V53.7108ZM51.4502 40.3095C53.1715 40.3095 54.5668 41.7049 54.5668 43.426C54.5668 45.1472 53.1715 46.5426 51.4502 46.5426C49.729 46.5426 48.3337 45.1472 48.3337 43.426C48.3337 41.7049 49.729 40.3095 51.4502 40.3095ZM26.5502 40.3095C28.2714 40.3095 29.6667 41.7049 29.6667 43.426C29.6667 45.1472 28.2714 46.5426 26.5502 46.5426C24.8289 46.5426 23.4336 45.1472 23.4336 43.426C23.4336 41.7049 24.8289 40.3095 26.5502 40.3095ZM26.5501 47.3751C28.3664 47.3751 29.9991 48.1606 31.1272 49.4104C30.3311 50.6159 29.8032 52.0187 29.6331 53.5392H22.0068C21.5446 53.5392 21.147 53.3383 20.8727 52.9663C20.5985 52.5943 20.5242 52.155 20.6609 51.7135C21.4391 49.2005 23.7815 47.3751 26.5501 47.3751ZM51.4502 47.3751C54.2189 47.3751 56.5612 49.2005 57.3394 51.7135C57.4761 52.155 57.4018 52.5942 57.1275 52.9663C56.8533 53.3383 56.4557 53.5392 55.9935 53.5392H48.3672C48.1971 52.0187 47.6691 50.616 46.873 49.4104C48.0012 48.1606 49.634 47.3751 51.4502 47.3751ZM26.0822 25.5611L27.2788 28.7128C27.2955 28.7585 27.3254 28.7981 27.3648 28.8267C27.4041 28.8553 27.4511 28.8715 27.4997 28.8733L30.8668 29.0374C30.9175 29.0393 30.9663 29.0569 31.0066 29.0877C31.0469 29.1185 31.0766 29.161 31.0917 29.2094C31.108 29.2574 31.1089 29.3093 31.0944 29.3579C31.0799 29.4065 31.0507 29.4494 31.0108 29.4807L28.3833 31.5926C28.345 31.6226 28.3165 31.6633 28.3015 31.7096C28.2865 31.7558 28.2856 31.8055 28.2989 31.8523L29.1833 35.1053C29.211 35.2072 29.1747 35.3103 29.0893 35.3723C29.0038 35.4344 28.8946 35.4371 28.8062 35.3792L25.9856 33.5329C25.9453 33.5058 25.8978 33.4913 25.8491 33.4913C25.8005 33.4913 25.753 33.5058 25.7126 33.5329L22.8921 35.3792C22.85 35.4075 22.8002 35.422 22.7495 35.4207C22.6989 35.4195 22.6498 35.4026 22.6091 35.3723C22.5678 35.343 22.5365 35.3016 22.5197 35.2538C22.5029 35.2059 22.5013 35.1541 22.5151 35.1053L23.3995 31.8523C23.4128 31.8055 23.4119 31.7558 23.3969 31.7096C23.3818 31.6633 23.3534 31.6226 23.3151 31.5926L20.6875 29.4806C20.6477 29.4493 20.6185 29.4064 20.604 29.3578C20.5895 29.3092 20.5904 29.2573 20.6066 29.2093C20.6218 29.1609 20.6515 29.1184 20.6918 29.0876C20.7321 29.0568 20.7809 29.0392 20.8316 29.0373L24.1987 28.8732C24.2473 28.8715 24.2943 28.8553 24.3336 28.8267C24.373 28.7981 24.4029 28.7584 24.4196 28.7127L25.6162 25.5611C25.6537 25.4624 25.7436 25.4004 25.8492 25.4004C25.9548 25.4004 26.0447 25.4624 26.0822 25.5611ZM52.345 25.5611L53.5415 28.7128C53.5582 28.7585 53.5882 28.7981 53.6275 28.8267C53.6669 28.8553 53.7138 28.8715 53.7625 28.8733L57.1295 29.0374C57.1802 29.0393 57.229 29.0569 57.2693 29.0877C57.3096 29.1185 57.3394 29.161 57.3545 29.2094C57.3707 29.2574 57.3716 29.3093 57.3571 29.3579C57.3426 29.4065 57.3135 29.4494 57.2736 29.4807L54.646 31.5926C54.6078 31.6226 54.5793 31.6633 54.5643 31.7096C54.5492 31.7558 54.5483 31.8055 54.5616 31.8523L55.446 35.1053C55.4599 35.1541 55.4583 35.2059 55.4414 35.2537C55.4246 35.3016 55.3934 35.343 55.3521 35.3723C55.3114 35.4026 55.2623 35.4195 55.2116 35.4207C55.1609 35.422 55.1111 35.4075 55.069 35.3792L52.2485 33.5329C52.2081 33.5058 52.1606 33.4913 52.1119 33.4913C52.0633 33.4913 52.0158 33.5058 51.9754 33.5329L49.155 35.3792C49.0666 35.4371 48.9573 35.4344 48.8719 35.3723C48.7865 35.3103 48.7502 35.2071 48.7779 35.1053L49.6622 31.8523C49.6756 31.8055 49.6747 31.7558 49.6596 31.7096C49.6446 31.6633 49.6161 31.6226 49.5779 31.5926L46.9503 29.4807C46.9104 29.4494 46.8812 29.4065 46.8667 29.3579C46.8522 29.3093 46.8532 29.2574 46.8694 29.2094C46.8845 29.161 46.9143 29.1185 46.9546 29.0877C46.9948 29.0569 47.0437 29.0393 47.0943 29.0374L50.4614 28.8733C50.51 28.8715 50.557 28.8553 50.5964 28.8267C50.6357 28.7981 50.6656 28.7585 50.6823 28.7128L51.8789 25.5611C51.9163 25.4624 52.0063 25.4004 52.1119 25.4004C52.2175 25.4004 52.3075 25.4624 52.345 25.5611Z" fill="#36B0E0"/>
</g>
<defs>
<filter id="filter0_b_72_12883" x="-118" y="-118" width="314" height="314" filterUnits="userSpaceOnUse" color-interpolation-filters="sRGB">
<feFlood flood-opacity="0" result="BackgroundImageFix"/>
<feGaussianBlur in="BackgroundImageFix" stdDeviation="59"/>
<feComposite in2="SourceAlpha" operator="in" result="effect1_backgroundBlur_72_12883"/>
<feBlend mode="normal" in="SourceGraphic" in2="effect1_backgroundBlur_72_12883" result="shape"/>
</filter>
<linearGradient id="paint0_linear_72_12883" x1="73.9629" y1="1.27005" x2="16.7787" y2="45.2004" gradientUnits="userSpaceOnUse">
<stop stop-color="white"/>
<stop offset="1" stop-color="#051014"/>
</linearGradient>
<clipPath id="clip0_72_12883">
<rect width="38" height="38" fill="white" transform="translate(20 20)"/>
</clipPath>
</defs>
</svg>
