<svg width="26" height="26" viewBox="0 0 26 26" fill="none" xmlns="http://www.w3.org/2000/svg">
<circle cx="12.777" cy="12.6957" r="12.3542" fill="#2F393D"/>
<g clip-path="url(#clip0_72_359)">
<path d="M20.1904 15.6347C12.442 16.6481 6.90581 17.8642 6.82474 12.8724C6.82474 12.8724 6.99268 10.9382 9.36699 10.8166C9.36699 10.8166 9.44807 9.09664 11.2607 8.90554C12.2335 8.79551 13.3454 9.80315 13.4612 10.8571C13.4612 10.8571 15.8645 10.4112 15.9688 12.7508C16.0035 13.5673 15.8182 14.9514 13.5076 14.8935C13.5076 14.8935 12.1698 14.7139 11.9845 12.6407C11.6081 16.6481 17.3991 16.4165 17.486 12.7739C17.5207 11.2046 16.5131 9.58309 14.243 9.89001C12.998 6.75707 9.6855 6.93659 8.4578 9.84368C6.69154 9.84368 5.34803 11.1988 5.3654 12.9708C5.43489 18.6692 13.3686 16.9493 20.1904 15.6347Z" fill="white"/>
</g>
<defs>
<clipPath id="clip0_72_359">
<rect width="14.825" height="9.38144" fill="white" transform="translate(5.36426 7.60303)"/>
</clipPath>
</defs>
</svg>
