<svg width="26" height="26" viewBox="0 0 26 26" fill="none" xmlns="http://www.w3.org/2000/svg">
<circle cx="12.9655" cy="12.696" r="12.3542" fill="#2F393D"/>
<g clip-path="url(#clip0_72_281)">
<path fill-rule="evenodd" clip-rule="evenodd" d="M12.0064 6.7981L13.8309 7.85148L8.36649 11.0064V12.5084L10.1724 13.5511V12.0491L15.6369 8.89412L17.4707 9.953V10.7823H14.6496C14.5892 10.7823 14.5313 10.8062 14.4886 10.8489C14.4459 10.8916 14.4219 10.9496 14.4219 11.0099C14.4219 11.0703 14.4459 11.1282 14.4886 11.1709C14.5313 11.2136 14.5892 11.2376 14.6496 11.2376H18.7412C18.8009 11.2386 18.8579 11.2629 18.8999 11.3055C18.9418 11.3481 18.9653 11.4055 18.9653 11.4653C18.9653 11.5251 18.9418 11.5824 18.8999 11.625C18.8579 11.6676 18.8009 11.692 18.7412 11.6929H17.4707V12.4248H15.2721C15.2117 12.4248 15.1538 12.4488 15.1111 12.4915C15.0684 12.5342 15.0444 12.5921 15.0444 12.6525C15.0444 12.7129 15.0684 12.7708 15.1111 12.8135C15.1538 12.8562 15.2117 12.8802 15.2721 12.8802H19.3636C19.424 12.8802 19.4819 12.9042 19.5246 12.9469C19.5673 12.9895 19.5913 13.0474 19.5913 13.1078C19.5913 13.1682 19.5673 13.2261 19.5246 13.2688C19.4819 13.3115 19.424 13.3355 19.3636 13.3355H17.4707V14.0674H15.8945C15.8341 14.0674 15.7762 14.0914 15.7335 14.1341C15.6908 14.1768 15.6668 14.2347 15.6668 14.2951C15.6668 14.3555 15.6908 14.4134 15.7335 14.4561C15.7762 14.4988 15.8341 14.5228 15.8945 14.5228H19.9861C20.0464 14.5228 20.1043 14.5468 20.147 14.5895C20.1897 14.6322 20.2137 14.6901 20.2137 14.7505C20.2137 14.8109 20.1897 14.8688 20.147 14.9115C20.1043 14.9542 20.0464 14.9782 19.9861 14.9782H17.4707V16.2628L12.0064 19.4177L6.54199 16.2628V9.95303L12.0064 6.7981Z" fill="white"/>
</g>
<defs>
<clipPath id="clip0_72_281">
<rect width="14.0014" height="14.0014" fill="white" transform="translate(6.37695 6.10718)"/>
</clipPath>
</defs>
</svg>
