<svg width="50" height="50" viewBox="0 0 50 50" fill="none" xmlns="http://www.w3.org/2000/svg">
<circle cx="25" cy="25" r="24.5" fill="#0B1319" stroke="#1A2228"/>
<path d="M22.3121 26.456H19.5401C19.0921 26.456 18.9521 26.288 18.9521 25.868V22.48C18.9521 22.032 19.1201 21.892 19.5401 21.892H22.3121V19.428C22.3121 18.308 22.5081 17.244 23.0681 16.264C23.6561 15.256 24.4961 14.584 25.5601 14.192C26.2601 13.94 26.9601 13.828 27.7161 13.828H30.4601C30.8521 13.828 31.0201 13.996 31.0201 14.388V17.58C31.0201 17.972 30.8521 18.14 30.4601 18.14C29.7041 18.14 28.9481 18.14 28.1921 18.168C27.4361 18.168 27.0441 18.532 27.0441 19.316C27.0161 20.156 27.0441 20.968 27.0441 21.836H30.2921C30.7401 21.836 30.9081 22.004 30.9081 22.452V25.84C30.9081 26.288 30.7681 26.428 30.2921 26.428H27.0441V35.556C27.0441 36.032 26.9041 36.2 26.4001 36.2H22.9001C22.4801 36.2 22.3121 36.032 22.3121 35.612V26.456Z" fill="white"/>
</svg>
