<svg width="26" height="26" viewBox="0 0 26 26" fill="none" xmlns="http://www.w3.org/2000/svg">
<circle cx="12.8883" cy="12.818" r="12.3542" fill="#2F393D"/>
<g clip-path="url(#clip0_72_384)">
<path d="M12.9004 12.818C12.9004 11.7566 13.7608 10.8962 14.8221 10.8962C15.8835 10.8962 16.7439 11.7567 16.7439 12.818C16.7439 13.8794 15.8835 14.7397 14.8221 14.7397C13.7608 14.7397 12.9004 13.8793 12.9004 12.818Z" fill="white"/>
<path d="M9.05664 16.6614C9.05664 15.6001 9.91704 14.7397 10.9784 14.7397L12.0025 14.199L12.9001 14.7397V16.6614C12.9001 17.7228 12.0397 18.5832 10.9784 18.5832C9.91704 18.5832 9.05664 17.7228 9.05664 16.6614Z" fill="white"/>
<path d="M12.9012 7.05273L11.8555 8.86947L12.9012 10.8962H14.796C15.8574 10.8962 16.7177 10.0358 16.7177 8.97449C16.7177 7.91313 15.8573 7.05273 14.796 7.05273H12.9012Z" fill="white"/>
<path d="M9.03027 8.97449C9.03027 10.0358 9.89067 10.8962 10.952 10.8962L11.9715 11.29L12.9007 10.8962V7.05273H10.952C9.89067 7.05273 9.03027 7.91313 9.03027 8.97449Z" fill="white"/>
<path d="M9.05664 12.818C9.05664 13.8794 9.91704 14.7398 10.9784 14.7398H12.9001V10.8962H10.9784C9.91704 10.8962 9.05664 11.7567 9.05664 12.818Z" fill="white"/>
</g>
<defs>
<clipPath id="clip0_72_384">
<rect width="11.5306" height="11.5306" fill="white" transform="translate(7.12305 7.05273)"/>
</clipPath>
</defs>
</svg>
