<svg width="133" height="127" viewBox="0 0 133 127" fill="none" xmlns="http://www.w3.org/2000/svg">
<path d="M11.5911 67.3192L37.6537 74.2638C37.7659 74.2937 37.8786 74.2971 37.9921 74.3078C38.0526 74.3132 38.1112 74.3317 38.1711 74.3309C38.3474 74.3316 38.5232 74.3101 38.6932 74.266C38.8632 74.2219 39.0262 74.1553 39.181 74.0687C39.2334 74.0393 39.2759 73.9955 39.3261 73.9614C39.4191 73.8972 39.5166 73.8381 39.6003 73.7583L47.589 66.0358L56.4105 68.382L45.2568 79.1645C45.2374 79.1832 45.2258 79.2073 45.2076 79.2268C45.1199 79.3188 45.041 79.4187 44.9719 79.5254C44.9462 79.5647 44.9204 79.6031 44.8982 79.6436C44.8319 79.7621 44.7781 79.8879 44.7357 80.0213C44.7285 80.0463 44.7153 80.0687 44.7091 80.0935L44.7033 80.1077C44.6624 80.2628 44.6444 80.4173 44.6401 80.5713C44.639 80.6117 44.6444 80.6525 44.6455 80.6934C44.6501 80.8208 44.6643 80.9447 44.6909 81.0676C44.6966 81.0935 44.6941 81.1205 44.7008 81.1462L50.602 103.873C50.6928 104.223 50.875 104.543 51.1299 104.799C51.3848 105.056 51.7032 105.24 52.0526 105.333L78.1152 112.278C78.2274 112.308 78.3403 112.312 78.4536 112.322C78.514 112.327 78.5726 112.346 78.6326 112.345C78.8089 112.345 78.9847 112.324 79.1547 112.28C79.3246 112.236 79.4877 112.169 79.6424 112.083C79.6949 112.053 79.7373 112.009 79.7875 111.975C79.8806 111.911 79.9781 111.852 80.0618 111.772L99.4535 93.0253C99.7135 92.774 99.9021 92.4582 100 92.1101C100.098 91.762 100.102 91.3942 100.011 91.0442L94.1096 68.3171C94.0637 68.1402 93.995 67.9735 93.9065 67.8192C93.8715 67.7577 93.8208 67.7086 93.7794 67.6508C93.717 67.5647 93.6617 67.4736 93.5862 67.3982C93.5302 67.3411 93.4605 67.3001 93.3979 67.2499C93.3221 67.1894 93.2529 67.122 93.1695 67.0729C93.0986 67.0312 93.0167 67.0082 92.9406 66.9752C92.8561 66.9381 92.7764 66.8912 92.6865 66.8661C92.6821 66.8651 92.6779 66.8652 92.6734 66.8642C92.6689 66.8633 92.6649 66.8601 92.6602 66.8581L77.6697 62.864L84.2355 56.5225L94.972 59.383C95.0842 59.4129 95.1969 59.4163 95.3104 59.427C95.3708 59.4323 95.4294 59.4509 95.4893 59.4501C95.6657 59.4507 95.8415 59.4293 96.0115 59.3852C96.1814 59.3411 96.3445 59.2745 96.4992 59.1879C96.5517 59.1584 96.5941 59.1147 96.6443 59.0806C96.7373 59.0164 96.8348 58.9573 96.9186 58.8775L116.31 40.1306C116.57 39.8793 116.759 39.5635 116.857 39.2154C116.955 38.8674 116.958 38.4995 116.868 38.1496L110.966 15.4225C110.92 15.2456 110.852 15.0789 110.763 14.9246C110.728 14.863 110.678 14.814 110.636 14.7562C110.574 14.6701 110.518 14.5789 110.443 14.5036C110.387 14.4464 110.317 14.4055 110.255 14.3553C110.179 14.2948 110.11 14.2273 110.026 14.1783C109.955 14.1366 109.873 14.1136 109.797 14.0806C109.713 14.0435 109.633 13.9967 109.543 13.9715C109.539 13.9705 109.535 13.9706 109.53 13.9696C109.526 13.9687 109.522 13.9655 109.517 13.9635L83.4545 7.0189C83.1142 6.92836 82.7562 6.92729 82.4153 7.0158C82.0744 7.10431 81.7622 7.2794 81.5089 7.52409L62.1172 26.271C62.0961 26.2913 62.0832 26.3189 62.0624 26.3401C61.9784 26.4289 61.9024 26.5249 61.8352 26.6269C61.8081 26.6688 61.7805 26.7087 61.7568 26.7517C61.6922 26.8687 61.6392 26.9932 61.5972 27.1243C61.589 27.1497 61.5761 27.1731 61.5692 27.1991C61.5682 27.2036 61.5653 27.2085 61.5644 27.213C61.5235 27.3682 61.5055 27.5226 61.5012 27.6767C61.5001 27.717 61.5054 27.7578 61.5065 27.7987C61.5111 27.9261 61.5254 28.0501 61.552 28.1729C61.5577 28.1989 61.5552 28.2259 61.5619 28.2515L65.667 44.0617L57.7619 46.1143L53.6568 30.3041C53.6109 30.1272 53.5422 29.9605 53.4537 29.8062C53.4187 29.7447 53.368 29.6956 53.3266 29.6378C53.2642 29.5517 53.2089 29.4606 53.1334 29.3852C53.0774 29.3281 53.0078 29.2871 52.9452 29.2369C52.8693 29.1764 52.8001 29.1089 52.7167 29.0599C52.6458 29.0182 52.5639 28.9952 52.4878 28.9622C52.4033 28.9251 52.3236 28.8783 52.2337 28.8531C52.2293 28.8522 52.2251 28.8522 52.2206 28.8512C52.2161 28.8503 52.2121 28.8471 52.2074 28.8452L26.1448 21.9006C25.4526 21.7164 24.7154 21.9078 24.1992 22.4057L4.8075 41.1527C4.78737 41.1727 4.77498 41.1981 4.7551 41.219C4.66927 41.3091 4.59191 41.4069 4.524 41.5111C4.49763 41.5517 4.47074 41.5903 4.44785 41.6321C4.3823 41.7494 4.32945 41.8749 4.28684 42.0072C4.27864 42.0326 4.26649 42.0547 4.25926 42.0798L4.25344 42.094C4.21251 42.2491 4.1946 42.4035 4.19031 42.5576C4.18917 42.5979 4.19453 42.6388 4.19562 42.6796C4.20024 42.8071 4.21448 42.931 4.2411 43.0538C4.23515 43.0796 4.23243 43.1056 4.2391 43.1313L10.1403 65.8585C10.231 66.2087 10.4132 66.5284 10.6681 66.7851C10.923 67.0417 11.2416 67.226 11.5911 67.3192ZM9.07114 45.4924L30.6011 51.2291L35.3233 69.4158L13.7934 63.679L9.07114 45.4924ZM88.1121 69.8723L72.1469 85.3068L50.6906 79.5899L66.6549 64.1557L88.1121 69.8723ZM49.5294 83.5061L71.0593 89.2428L75.7816 107.429L54.2516 101.693L49.5294 83.5061ZM83.5086 11.2608L104.966 16.9784L89.0005 32.4119L67.5443 26.6951L83.5086 11.2608ZM66.3831 30.6112L87.913 36.3479L92.6352 54.5346L71.1053 48.7979L70.635 46.9866L79.5282 44.6775C80.6191 44.3942 81.2746 43.2789 80.9913 42.188C80.7081 41.0971 79.5928 40.4417 78.5019 40.7249L69.6087 43.0341L66.3831 30.6112ZM66.6824 48.0129L67.4521 50.9773C67.543 51.3273 67.7252 51.6468 67.9801 51.9033C68.235 52.1598 68.5534 52.3439 68.9028 52.437L79.6214 55.2936L73.0557 61.6352L66.5909 59.9122C66.2506 59.8216 65.8926 59.8206 65.5517 59.9091C65.2109 59.9976 64.8986 60.1727 64.6453 60.4174L59.8354 65.0679L51.0139 62.7217L58.9888 55.0112C59.5195 54.5 59.7323 53.7433 59.547 53.0299L58.7773 50.0655L66.6824 48.0129ZM26.1966 26.142L47.6541 31.8596L31.6886 47.2931L10.2321 41.5752L26.1966 26.142Z" fill="#101010"/>
</svg>
