<svg width="267" height="214" viewBox="0 0 267 214" fill="none" xmlns="http://www.w3.org/2000/svg">
<g opacity="0.07">
<path d="M262 213.5C264.761 213.5 267.006 211.261 266.941 208.5C265.994 168.022 253.552 128.609 231.019 94.8858C207.559 59.7759 174.215 32.411 135.203 16.2517C96.1909 0.09241 53.2632 -4.1356 11.8482 4.10234C-29.5667 12.3403 -67.6088 32.6742 -97.4673 62.5327C-127.326 92.3912 -147.66 130.433 -155.898 171.848C-164.136 213.263 -159.908 256.191 -143.748 295.203C-127.589 334.215 -100.224 367.559 -65.1142 391.019C-31.3915 413.552 8.02168 425.994 48.4999 426.941C51.2606 427.006 53.5 424.761 53.5 422V421.24C53.5 418.478 51.2605 416.246 48.4999 416.178C10.1502 415.232 -27.183 403.422 -59.1362 382.072C-92.4766 359.795 -118.462 328.131 -133.807 291.085C-149.152 254.039 -153.167 213.275 -145.344 173.947C-137.522 134.62 -118.212 98.4949 -89.8587 70.1413C-61.5051 41.7876 -25.3803 22.4785 13.9474 14.6557C53.2751 6.83294 94.0393 10.8479 131.085 26.1928C168.131 41.5377 199.795 67.5234 222.072 100.864C243.422 132.817 255.232 170.15 256.178 208.5C256.246 211.26 258.478 213.5 261.24 213.5H262Z" fill="url(#paint0_linear_72_69)" fill-opacity="0.7"/>
<path d="M-110.604 205.369C-112.947 205.253 -114.946 207.058 -115.003 209.403C-115.777 241.255 -107.507 272.707 -91.1087 300.092C-73.9823 328.693 -48.7592 351.573 -18.6293 365.839C11.5006 380.105 45.1842 385.116 78.162 380.238C111.14 375.36 141.931 360.813 166.641 338.436C191.351 316.059 208.87 286.857 216.984 254.523C225.098 222.189 223.441 188.175 212.223 156.782C201.006 125.39 180.731 98.0284 153.963 78.1586C128.333 59.1336 97.8528 47.7947 66.0804 45.4169C63.7411 45.2418 61.7466 47.0526 61.6306 49.3955C61.5145 51.7384 63.3208 53.726 65.6598 53.9042C95.754 56.1969 124.619 66.9561 148.9 84.9796C174.319 103.848 193.572 129.83 204.224 159.641C214.876 189.451 216.449 221.751 208.745 252.455C201.04 283.16 184.403 310.89 160.939 332.139C137.474 353.389 108.235 367.203 76.9191 371.835C45.6033 376.466 13.6173 371.708 -14.9941 358.161C-43.6055 344.615 -67.5573 322.888 -83.8206 295.728C-99.3558 269.785 -107.209 239.997 -106.516 209.824C-106.462 207.479 -108.261 205.485 -110.604 205.369Z" fill="url(#paint1_linear_72_69)" fill-opacity="0.7"/>
<path d="M156.595 229.623C158.067 229.854 159.45 228.847 159.643 227.37C162.265 207.306 159.148 186.888 150.625 168.495C141.724 149.286 127.327 133.147 109.254 122.12C91.1805 111.093 70.2433 105.673 49.0896 106.545C27.9359 107.417 7.51596 114.543 -9.58807 127.02C-26.6921 139.498 -39.712 156.767 -47.0013 176.644C-54.2906 196.522 -55.5219 218.114 -50.5395 238.691C-45.5571 259.268 -34.5849 277.906 -19.0102 292.247C-4.09764 305.978 14.393 315.18 34.2996 318.81C35.7652 319.077 37.146 318.067 37.3762 316.595C37.6064 315.123 36.5987 313.747 35.1335 313.478C16.2811 310.014 -1.22821 301.287 -15.3558 288.278C-30.1455 274.66 -40.5648 256.962 -45.2961 237.422C-50.0273 217.882 -48.8581 197.377 -41.9362 178.502C-35.0142 159.626 -22.6505 143.228 -6.40852 131.379C9.83348 119.53 29.2243 112.764 49.3119 111.935C69.3994 111.107 89.2815 116.254 106.444 126.725C123.606 137.197 137.278 152.522 145.73 170.764C153.804 188.188 156.77 207.526 154.311 226.536C154.12 228.013 155.123 229.393 156.595 229.623Z" fill="url(#paint2_linear_72_69)" fill-opacity="0.7"/>
</g>
<defs>
<linearGradient id="paint0_linear_72_69" x1="-113.03" y1="40.1944" x2="129.775" y2="499.536" gradientUnits="userSpaceOnUse">
<stop stop-color="#15BFFD"/>
<stop offset="1" stop-color="#9C37FD"/>
</linearGradient>
<linearGradient id="paint1_linear_72_69" x1="-77.9712" y1="76.6792" x2="113.717" y2="439.318" gradientUnits="userSpaceOnUse">
<stop stop-color="#15BFFD"/>
<stop offset="1" stop-color="#9C37FD"/>
</linearGradient>
<linearGradient id="paint2_linear_72_69" x1="-29.9958" y1="126.607" x2="91.7428" y2="356.914" gradientUnits="userSpaceOnUse">
<stop stop-color="#15BFFD"/>
<stop offset="1" stop-color="#9C37FD"/>
</linearGradient>
</defs>
</svg>
