<svg width="109" height="109" viewBox="0 0 109 109" fill="none" xmlns="http://www.w3.org/2000/svg">
<g clip-path="url(#clip0_72_113)">
<path d="M81.2511 38.9944C80.0349 43.5334 75.6338 46.0744 71.0948 44.8581C68.6918 44.2142 66.842 42.5739 65.9362 40.6142L55.7902 37.8956L53.6439 45.9056C53.2146 47.5076 53.9965 48.8618 55.5985 49.291L84.9686 57.1607L92.8383 27.7906C93.2675 26.1886 92.4857 24.8344 90.8837 24.4052L64.1836 17.2509C62.5816 16.8217 61.2274 17.6035 60.7982 19.2055L58.6519 27.2155L68.7979 29.9341C70.5622 28.6899 72.9844 28.1942 75.3874 28.8381C79.9264 30.0543 82.4673 34.4554 81.2511 38.9944Z" fill="#101010"/>
<path d="M23.8898 60.8269C23.1028 63.7639 24.8619 66.8108 27.7989 67.5978C30.7359 68.3848 33.7828 66.6256 34.5698 63.6886C35.0706 61.8196 34.5034 59.6645 33.116 58.4342L40.4849 30.9331L67.986 38.302C68.3577 40.1186 69.9406 41.6874 71.8096 42.1882C74.7466 42.9752 77.7935 41.2161 78.5805 38.2791C79.3674 35.3421 77.6083 32.2952 74.6713 31.5082C72.8023 31.0074 70.6471 31.5746 69.4169 32.962L39.2457 24.8777C37.6437 24.4484 36.2896 25.2302 35.8603 26.8322L27.776 57.0033C25.9593 57.3751 24.3906 58.9579 23.8898 60.8269ZM91.5471 64.6471L99.4168 35.277L95.5076 28.5062L87.6379 57.8763L91.5471 64.6471Z" fill="#101010"/>
<path d="M54.8827 51.9607L58.7918 58.7316L88.1619 66.6012L84.2528 59.8304L54.8827 51.9607ZM46.8726 49.8144L38.8626 47.6681L36.144 57.8142C37.3883 59.5784 37.8839 62.0006 37.24 64.4036C36.0238 68.9426 31.6228 71.4836 27.0837 70.2673C22.5447 69.0511 20.0038 64.6501 21.22 60.111C21.8639 57.708 23.5042 55.8582 25.4639 54.9524L28.1826 44.8064L20.1725 42.6601C18.5705 42.2309 17.2164 43.0127 16.7871 44.6147L9.63283 71.3148C9.20358 72.9168 9.98541 74.271 11.5874 74.7002L40.9575 82.5699L48.8272 53.1998C49.2565 51.5978 48.4746 50.2437 46.8726 49.8144ZM40.2421 85.2399L10.872 77.3703L14.7811 84.1411L44.1513 92.0108L40.2421 85.2399ZM55.4064 60.6861L51.4972 53.9153L43.6275 83.2854L47.5367 90.0562L55.4064 60.6861Z" fill="#101010"/>
</g>
<defs>
<clipPath id="clip0_72_113">
<rect width="88.4543" height="88.4543" fill="white" transform="translate(108.334 23.3574) rotate(105)"/>
</clipPath>
</defs>
</svg>
