<svg width="275" height="214" viewBox="0 0 275 214" fill="none" xmlns="http://www.w3.org/2000/svg">
<g opacity="0.07">
<path d="M213.5 5C213.5 2.23859 211.261 -0.006101 208.5 0.0585352C168.022 1.00647 128.609 13.4484 94.8858 35.9812C59.7759 59.4409 32.411 92.7851 16.2517 131.797C0.092413 170.809 -4.1356 213.737 4.10234 255.152C12.3403 296.567 32.6742 334.609 62.5327 364.467C92.3912 394.326 130.433 414.66 171.848 422.898C213.263 431.136 256.191 426.908 295.203 410.748C334.215 394.589 367.559 367.224 391.019 332.114C413.552 298.391 425.994 258.978 426.941 218.5C427.006 215.739 424.761 213.5 422 213.5L421.24 213.5C418.478 213.5 416.246 215.74 416.178 218.5C415.232 256.85 403.422 294.183 382.072 326.136C359.795 359.477 328.131 385.462 291.085 400.807C254.039 416.152 213.275 420.167 173.947 412.344C134.62 404.522 98.4949 385.212 70.1413 356.859C41.7876 328.505 22.4785 292.38 14.6557 253.053C6.83295 213.725 10.8479 172.961 26.1928 135.915C41.5377 98.8689 67.5234 67.2053 100.864 44.9279C132.817 23.5775 170.15 11.7675 208.5 10.8217C211.261 10.7537 213.5 8.52155 213.5 5.76013L213.5 5Z" fill="url(#paint0_linear_72_73)" fill-opacity="0.7"/>
<path d="M205.369 377.604C205.253 379.947 207.059 381.946 209.404 382.003C241.256 382.777 272.708 374.507 300.093 358.109C328.694 340.982 351.574 315.759 365.84 285.629C380.105 255.499 385.116 221.816 380.239 188.838C375.361 155.86 360.814 125.069 338.436 100.359C316.059 75.6492 286.857 58.1296 254.523 50.0159C222.189 41.9023 188.175 43.559 156.783 54.7767C125.39 65.9943 98.0289 86.269 78.1591 113.037C59.1341 138.667 47.7952 169.147 45.4174 200.92C45.2423 203.259 47.0531 205.253 49.396 205.369C51.7389 205.486 53.7265 203.679 53.9046 201.34C56.1974 171.246 66.9566 142.381 84.9801 118.1C103.848 92.6812 129.831 73.4284 159.641 62.7761C189.451 52.1238 221.751 50.5506 252.456 58.2553C283.16 65.96 310.89 82.5967 332.14 106.061C353.389 129.526 367.203 158.765 371.835 190.081C376.467 221.397 371.709 253.383 358.162 281.994C344.615 310.606 322.888 334.557 295.729 350.821C269.785 366.356 239.998 374.209 209.824 373.516C207.479 373.462 205.485 375.261 205.369 377.604Z" fill="url(#paint1_linear_72_73)" fill-opacity="0.7"/>
<path d="M229.623 110.405C229.854 108.933 228.847 107.55 227.37 107.357C207.306 104.735 186.888 107.852 168.495 116.375C149.286 125.276 133.147 139.673 122.12 157.746C111.093 175.819 105.673 196.757 106.545 217.91C107.417 239.064 114.543 259.484 127.02 276.588C139.498 293.692 156.767 306.712 176.644 314.001C196.522 321.291 218.114 322.522 238.691 317.54C259.268 312.557 277.906 301.585 292.247 286.01C305.978 271.098 315.18 252.607 318.81 232.7C319.077 231.235 318.067 229.854 316.595 229.624C315.123 229.394 313.747 230.401 313.478 231.867C310.014 250.719 301.287 268.228 288.278 282.356C274.66 297.146 256.962 307.565 237.422 312.296C217.882 317.027 197.377 315.858 178.502 308.936C159.626 302.014 143.228 289.651 131.379 273.409C119.53 257.167 112.764 237.776 111.935 217.688C111.107 197.601 116.254 177.719 126.725 160.556C137.197 143.394 152.522 129.722 170.764 121.27C188.188 113.196 207.526 110.23 226.536 112.689C228.013 112.88 229.393 111.877 229.623 110.405Z" fill="url(#paint2_linear_72_73)" fill-opacity="0.7"/>
</g>
<defs>
<linearGradient id="paint0_linear_72_73" x1="40.1944" y1="380.03" x2="499.536" y2="137.225" gradientUnits="userSpaceOnUse">
<stop stop-color="#15BFFD"/>
<stop offset="1" stop-color="#9C37FD"/>
</linearGradient>
<linearGradient id="paint1_linear_72_73" x1="76.6797" y1="344.971" x2="439.318" y2="153.283" gradientUnits="userSpaceOnUse">
<stop stop-color="#15BFFD"/>
<stop offset="1" stop-color="#9C37FD"/>
</linearGradient>
<linearGradient id="paint2_linear_72_73" x1="126.607" y1="296.996" x2="356.914" y2="175.257" gradientUnits="userSpaceOnUse">
<stop stop-color="#15BFFD"/>
<stop offset="1" stop-color="#9C37FD"/>
</linearGradient>
</defs>
</svg>
