<svg width="50" height="50" viewBox="0 0 50 50" fill="none" xmlns="http://www.w3.org/2000/svg">
<circle cx="25" cy="25" r="24.5" fill="#0B1319" stroke="#1A2228"/>
<g clip-path="url(#clip0_72_12666)">
<path d="M34.995 35L35 34.9992V27.6642C35 24.0758 34.2275 21.3117 30.0325 21.3117C28.0158 21.3117 26.6625 22.4183 26.11 23.4675H26.0517V21.6467H22.0742V34.9992H26.2158V28.3875C26.2158 26.6467 26.5458 24.9633 28.7017 24.9633C30.8258 24.9633 30.8575 26.95 30.8575 28.4992V35H34.995ZM15.33 21.6475H19.4767V35H15.33V21.6475ZM17.4017 15C16.0758 15 15 16.0758 15 17.4017C15 18.7275 16.0758 19.8258 17.4017 19.8258C18.7275 19.8258 19.8033 18.7275 19.8033 17.4017C19.8029 16.7648 19.5497 16.1542 19.0994 15.7039C18.6491 15.2536 18.0385 15.0004 17.4017 15Z" fill="white"/>
</g>
<defs>
<clipPath id="clip0_72_12666">
<rect width="20" height="20" fill="white" transform="translate(15 15)"/>
</clipPath>
</defs>
</svg>
