<svg width="26" height="26" viewBox="0 0 26 26" fill="none" xmlns="http://www.w3.org/2000/svg">
<circle cx="12.6657" cy="12.6957" r="12.3542" fill="#2F393D"/>
<path d="M5.59456 12.347L8.66381 13.9083C8.67702 13.9151 8.69116 13.9188 8.70518 13.9233C8.71265 13.9257 8.71946 13.9296 8.72706 13.9313C8.74935 13.9366 8.7723 13.9393 8.79525 13.9393C8.81821 13.9393 8.84102 13.9366 8.86344 13.9313C8.87105 13.9295 8.87786 13.9257 8.88533 13.9233C8.89921 13.9188 8.91349 13.9149 8.9267 13.9083L10.1911 13.2652L11.2301 13.7931L9.46475 14.6911C9.46168 14.6927 9.45941 14.6951 9.45648 14.6968C9.44236 14.7047 9.42909 14.7137 9.41684 14.7238C9.41231 14.7275 9.40777 14.7311 9.40363 14.7351C9.39136 14.7466 9.38041 14.7594 9.37067 14.7733C9.36894 14.7759 9.36654 14.7781 9.36494 14.7807L9.36373 14.7822C9.35346 14.7986 9.34612 14.8157 9.34051 14.8331C9.33904 14.8377 9.33838 14.8425 9.33718 14.8472C9.33357 14.8618 9.3313 14.8763 9.33064 14.8911C9.33051 14.8942 9.3293 14.8972 9.3293 14.9004V17.6627C9.3293 17.7052 9.34186 17.747 9.36568 17.7837C9.3895 17.8205 9.42373 17.8509 9.46488 17.8718L12.5341 19.4331C12.5473 19.4398 12.5615 19.4437 12.5755 19.4481C12.583 19.4505 12.5898 19.4543 12.5974 19.456C12.6197 19.4613 12.6426 19.4641 12.6656 19.4641C12.6885 19.4641 12.7113 19.4613 12.7338 19.456C12.7414 19.4542 12.7482 19.4505 12.7556 19.4481C12.7695 19.4435 12.7838 19.4397 12.797 19.4331L15.8663 17.8718C15.9074 17.8509 15.9417 17.8205 15.9655 17.7837C15.9893 17.747 16.0018 17.7052 16.0018 17.6627V14.9004C16.0018 14.8789 15.9986 14.8578 15.9925 14.8377C15.9901 14.8296 15.9853 14.8225 15.982 14.8147C15.9769 14.8031 15.9729 14.7911 15.9658 14.7803C15.9606 14.7721 15.9531 14.7654 15.9469 14.7578C15.9393 14.7487 15.9327 14.7389 15.9238 14.7309C15.9162 14.724 15.9066 14.719 15.898 14.713C15.8886 14.7063 15.88 14.6986 15.8695 14.6931C15.8689 14.6928 15.8684 14.6927 15.8679 14.6925C15.8673 14.6922 15.8669 14.6917 15.8664 14.6914L14.101 13.7934L15.1401 13.2654L16.4044 13.9086C16.4177 13.9153 16.4318 13.919 16.4458 13.9236C16.4533 13.926 16.4601 13.9298 16.4677 13.9315C16.49 13.9368 16.5129 13.9395 16.5359 13.9395C16.5588 13.9395 16.5817 13.9368 16.6041 13.9315C16.6117 13.9297 16.6185 13.926 16.626 13.9236C16.6398 13.919 16.6541 13.9152 16.6673 13.9086L19.7366 12.3472C19.7777 12.3263 19.812 12.2959 19.8358 12.2592C19.8596 12.2225 19.8722 12.1807 19.8722 12.1381V9.37583C19.8722 9.35433 19.869 9.33332 19.8628 9.31314C19.8604 9.30509 19.8556 9.298 19.8523 9.2902C19.8472 9.27855 19.8432 9.26654 19.8361 9.25573C19.8309 9.24756 19.8234 9.24084 19.8172 9.23327C19.8096 9.22414 19.803 9.21442 19.7941 9.20637C19.7865 9.19952 19.7769 9.19448 19.7683 9.18847C19.7589 9.18175 19.7503 9.17406 19.7398 9.16854C19.7393 9.1683 19.7387 9.16818 19.7382 9.16794C19.7376 9.16769 19.7372 9.16722 19.7367 9.16685L16.6675 7.60554C16.6274 7.58517 16.5821 7.57446 16.5361 7.57446C16.4901 7.57446 16.4448 7.58517 16.4047 7.60554L13.3355 9.16685C13.3321 9.16854 13.3296 9.1713 13.3263 9.1731C13.3127 9.18072 13.3 9.18941 13.2881 9.19904C13.2833 9.203 13.2785 9.20673 13.2741 9.21093C13.2621 9.22234 13.2513 9.23495 13.2417 9.24864C13.2398 9.25129 13.2374 9.25357 13.2357 9.25633C13.2354 9.25681 13.2349 9.25729 13.2346 9.25777C13.2243 9.27423 13.217 9.29128 13.2114 9.3087C13.2099 9.31326 13.2092 9.31806 13.208 9.32275C13.2044 9.3374 13.2022 9.35193 13.2015 9.3667C13.2014 9.36983 13.2002 9.37283 13.2002 9.37595V11.2976H12.1326V9.37595C12.1326 9.35445 12.1294 9.33343 12.1233 9.31325C12.1209 9.30521 12.116 9.29812 12.1127 9.29032C12.1076 9.27867 12.1036 9.26666 12.0966 9.25585C12.0914 9.24768 12.0839 9.24096 12.0776 9.23339C12.07 9.22426 12.0635 9.21453 12.0545 9.20648C12.0469 9.19964 12.0373 9.19459 12.0288 9.18859C12.0193 9.18186 12.0108 9.17418 12.0002 9.16865C11.9997 9.16841 11.9992 9.1683 11.9986 9.16805C11.9981 9.16781 11.9977 9.16734 11.9971 9.16697L8.9279 7.60566C8.84637 7.56422 8.74681 7.56422 8.66514 7.60566L5.5959 9.16698C5.59269 9.16866 5.59029 9.17118 5.58709 9.17298C5.57327 9.1807 5.56027 9.18954 5.54826 9.1994C5.54359 9.20325 5.53892 9.20685 5.53465 9.21093C5.5225 9.22234 5.51169 9.23507 5.50195 9.24888C5.50008 9.25153 5.49782 9.25369 5.49608 9.25633L5.49488 9.25777C5.4846 9.27423 5.47726 9.29128 5.47166 9.3087C5.47019 9.31326 5.46953 9.31806 5.46832 9.32275C5.46472 9.3374 5.46245 9.35193 5.46178 9.3667C5.46018 9.36947 5.45898 9.37235 5.45898 9.37547V12.1378C5.45896 12.1804 5.47151 12.2221 5.49533 12.2589C5.51915 12.2957 5.55339 12.3261 5.59456 12.347ZM5.99276 9.78718L8.52823 11.0769V13.2874L5.99276 11.9976V9.78718ZM15.192 14.9001L12.665 16.1856L10.1382 14.9002L12.665 13.6148L15.192 14.9001ZM9.86269 15.3118L12.3982 16.6016V18.812L9.86269 17.5223V15.3118ZM16.535 8.09015L19.0619 9.37559L16.535 10.6609L14.0082 9.37559L16.535 8.09015ZM13.7326 9.78718L16.2681 11.0769V13.2874L13.7326 11.9976V11.7775H14.9336C15.0809 11.7775 15.2005 11.6699 15.2005 11.5373C15.2005 11.4047 15.0809 11.2971 14.9336 11.2971H13.7326V9.78718ZM13.1988 11.7775V12.1378C13.1988 12.1803 13.2114 12.2221 13.2352 12.2588C13.259 12.2956 13.2933 12.326 13.3344 12.3469L14.5967 12.9891L13.5577 13.517L12.7964 13.1297C12.7563 13.1093 12.711 13.0986 12.665 13.0986C12.6189 13.0986 12.5737 13.1093 12.5336 13.1297L11.7723 13.517L10.7333 12.9891L11.9955 12.3469C12.0795 12.3044 12.1313 12.2245 12.1313 12.1378V11.7775L13.1988 11.7775ZM8.79512 8.09015L11.322 9.37559L8.79512 10.6609L6.26833 9.37547L8.79512 8.09015Z" fill="white"/>
</svg>
