<svg width="78" height="78" viewBox="0 0 78 78" fill="none" xmlns="http://www.w3.org/2000/svg">
<g filter="url(#filter0_b_72_12859)">
<circle cx="39" cy="39" r="39" fill="white" fill-opacity="0.03"/>
<circle cx="39" cy="39" r="38.5" stroke="url(#paint0_linear_72_12859)" stroke-opacity="0.1"/>
</g>
<path fill-rule="evenodd" clip-rule="evenodd" d="M33.0959 43.3495C33.683 42.3288 34.7963 41.6101 36.1239 41.1985C37.7731 42.6309 40.2261 42.6309 41.8754 41.1985C43.203 41.6102 44.3162 42.3288 44.9034 43.3519C42.0873 47.5468 35.912 47.5468 33.0959 43.3495ZM57.6535 28.6286L56.0335 30.7212L57.1833 33.1036L54.6937 32.2072L52.7814 34.0391L52.8643 31.3936L50.5306 30.1415L53.0738 29.4034L53.544 26.7993L55.0323 28.9868L57.6535 28.6287V28.6286ZM49.7705 20.7431L49.4124 23.3667L51.6 24.8551L48.9959 25.3253L48.2553 27.8661L47.0032 25.5348L44.3577 25.6152L46.1895 23.7053L45.2955 21.2157L47.678 22.3654L49.7705 20.7431ZM20.3458 28.6286L22.9694 28.9867L24.4577 26.7991L24.9279 29.4032L27.4686 30.1413L25.1374 31.3934L25.2178 34.0389L23.308 32.207L20.8159 33.1034L21.9681 30.721L20.3457 28.6284L20.3458 28.6286ZM28.2312 20.7431L30.3212 22.3655L32.7061 21.2158L31.8096 23.7054L33.6414 25.6153L30.9959 25.5349L29.7438 27.8661L29.0057 25.3254L26.3991 24.8552L28.5891 23.3668L28.231 20.7432L28.2312 20.7431ZM39.0008 17.8589L40.002 20.3096L42.6402 20.5045L40.6208 22.2121L41.2492 24.7846L39.0008 23.3888L36.7499 24.7846L37.3808 22.2121L35.3589 20.5045L37.9996 20.3096L39.0008 17.8589H39.0008ZM39.0008 34.5286C40.8547 34.5286 42.3552 36.0317 42.3552 37.8855C42.3552 39.7393 40.8547 41.2423 39.0008 41.2423C37.147 41.2423 35.644 39.7393 35.644 37.8855C35.644 36.0317 37.147 34.5286 39.0008 34.5286ZM36.9838 27.413C38.1921 26.5652 39.8096 26.5652 41.0178 27.413C41.6926 27.8881 42.4234 28.0829 43.2444 28.0098C44.7158 27.8807 46.1164 28.6895 46.74 30.0269C47.0884 30.7772 47.6218 31.3107 48.3697 31.659C49.7095 32.2826 50.5183 33.6809 50.3868 35.1523C50.3161 35.9756 50.5111 36.704 50.9836 37.3812C51.8314 38.5895 51.8314 40.207 50.9836 41.4153C50.5111 42.0901 50.3161 42.8209 50.3868 43.6443C50.5184 45.1132 49.7096 46.5139 48.3697 47.1375C47.6218 47.4858 47.0884 48.0193 46.74 48.7673C46.1164 50.1071 44.7157 50.9159 43.2444 50.7867C42.4234 50.7137 41.6926 50.9085 41.0178 51.3835C39.8095 52.2313 38.192 52.2313 36.9838 51.3835C36.3066 50.9086 35.5782 50.7137 34.7548 50.7867C33.2834 50.9158 31.8828 50.107 31.2616 48.7673C30.9132 48.0194 30.3773 47.4859 29.6294 47.1375C28.2921 46.5139 27.4833 45.1132 27.6124 43.6443C27.6855 42.8209 27.4906 42.0901 27.0156 41.4153C26.1678 40.207 26.1678 38.5895 27.0156 37.3812C27.4905 36.704 27.6855 35.9756 27.6124 35.1523C27.4833 33.6809 28.2921 32.2826 29.6294 31.659C30.3773 31.3107 30.9132 30.7772 31.2616 30.0269C31.8828 28.6895 33.2834 27.8807 34.7548 28.0098C35.5782 28.083 36.3066 27.8881 36.9838 27.413ZM39.0008 31.262C43.4929 31.262 47.1347 34.9062 47.1347 39.3983C47.1347 43.8903 43.4929 47.5322 39.0008 47.5322C34.5088 47.5322 30.8645 43.8903 30.8645 39.3983C30.8645 34.9062 34.5064 31.262 39.0008 31.262ZM30.1313 48.8573L27.6563 58.0947L32.4138 55.6002L35.2883 60.141L37.2786 52.7111C36.9657 52.5835 36.6682 52.4208 36.3919 52.2263C35.9168 51.8925 35.4223 51.7611 34.845 51.8122C32.9424 51.9803 31.13 50.9328 30.3261 49.2032C30.2677 49.079 30.2045 48.9621 30.1313 48.8573ZM47.868 48.8573L50.343 58.0947L45.5855 55.6002L42.711 60.141L40.7208 52.7111C41.0326 52.5844 41.3297 52.4212 41.6099 52.2263C42.085 51.8925 42.577 51.7611 43.1544 51.8122C45.0569 51.9803 46.8694 50.9328 47.6732 49.2032C47.7293 49.0831 47.7943 48.9675 47.868 48.8573Z" fill="#36B0E0"/>
<defs>
<filter id="filter0_b_72_12859" x="-118" y="-118" width="314" height="314" filterUnits="userSpaceOnUse" color-interpolation-filters="sRGB">
<feFlood flood-opacity="0" result="BackgroundImageFix"/>
<feGaussianBlur in="BackgroundImageFix" stdDeviation="59"/>
<feComposite in2="SourceAlpha" operator="in" result="effect1_backgroundBlur_72_12859"/>
<feBlend mode="normal" in="SourceGraphic" in2="effect1_backgroundBlur_72_12859" result="shape"/>
</filter>
<linearGradient id="paint0_linear_72_12859" x1="73.9629" y1="1.27005" x2="16.7787" y2="45.2004" gradientUnits="userSpaceOnUse">
<stop stop-color="white"/>
<stop offset="1" stop-color="#051014"/>
</linearGradient>
</defs>
</svg>
