<svg width="26" height="26" viewBox="0 0 26 26" fill="none" xmlns="http://www.w3.org/2000/svg">
<circle cx="12.8883" cy="12.696" r="12.3542" fill="#2F393D"/>
<g clip-path="url(#clip0_72_352)">
<path d="M18.7585 12.5669C18.7266 10.6039 17.6333 8.69663 15.9415 7.69102C14.6089 6.8611 12.928 6.6378 11.4092 7.02081C9.12702 7.59549 7.31078 9.66216 7.07572 12.0163C6.78853 14.2427 7.91348 16.5568 9.8367 17.698C11.7201 18.8793 14.2816 18.8311 16.125 17.5865C17.7848 16.5092 18.8143 14.5428 18.7588 12.5672L18.7585 12.5669ZM13.2206 17.6899C10.5554 17.9532 7.97767 15.6949 7.90595 13.0189C7.70645 10.8483 9.13486 8.70175 11.1777 7.98634C14.0424 6.83729 17.5615 8.95971 17.8569 12.0323C18.3197 14.7933 16.0186 17.6019 13.2206 17.6899ZM11.4649 12.3996L15.3222 9.2475L13.2429 12.4075C12.6522 12.4075 12.0616 12.4075 11.4709 12.3996H11.4649ZM12.5498 12.9821L14.3217 12.99L10.4644 16.15L12.5437 12.9818L12.5498 12.9821Z" fill="white"/>
</g>
<defs>
<clipPath id="clip0_72_352">
<rect width="13.1778" height="13.1778" fill="white" transform="translate(6.2998 6.10718)"/>
</clipPath>
</defs>
</svg>
