<svg width="26" height="26" viewBox="0 0 26 26" fill="none" xmlns="http://www.w3.org/2000/svg">
<circle cx="12.6657" cy="12.8183" r="12.3542" fill="#2F393D"/>
<g clip-path="url(#clip0_72_405)">
<path d="M13.3615 12.5848C13.3617 12.5851 17.5604 10.1605 17.5604 10.1605C17.7876 10.0292 17.8121 9.81173 17.8121 9.72431C17.8121 9.6369 17.7876 9.41944 17.5603 9.28826L13.243 6.79564C13.0649 6.6928 12.8651 6.64136 12.6654 6.64136C12.4657 6.64136 12.2659 6.6928 12.0878 6.79564L7.77046 9.28823C7.54325 9.41944 7.5187 9.6369 7.5187 9.72431C7.5187 9.81173 7.54322 10.0292 7.77046 10.1605L11.9691 12.5851C11.9714 12.586 11.9734 12.5873 11.9755 12.5885C12.4018 12.8317 12.9291 12.8318 13.3554 12.5885C13.3574 12.5873 13.3594 12.586 13.3615 12.5848ZM18.4491 10.8275C18.3734 10.7838 18.1728 10.6963 17.9455 10.8275C17.9455 10.8274 13.7466 13.2521 13.7466 13.2521C13.7437 13.2538 13.7408 13.2553 13.7379 13.257C13.3136 13.5061 13.0505 13.9651 13.0505 14.4575V19.3139C13.0505 19.5765 13.2268 19.7065 13.3025 19.7502C13.3695 19.7888 13.534 19.8612 13.7281 19.787L18.1233 17.2495C18.4795 17.0437 18.7009 16.6604 18.7009 16.249V11.2636C18.7009 11.0012 18.5248 10.8712 18.4491 10.8275ZM11.593 13.2571C11.5901 13.2554 11.5871 13.2539 11.5842 13.2522L7.38534 10.8274C7.15805 10.6964 6.9574 10.7839 6.88169 10.8275C6.80599 10.8712 6.62988 11.0013 6.62988 11.2636V16.249C6.62988 16.6604 6.85122 17.0438 7.20749 17.2495L11.6026 19.787C11.7967 19.8613 11.9613 19.7888 12.0282 19.7502C12.104 19.7065 12.2803 19.5765 12.2803 19.3139V14.4575C12.2803 13.9652 12.0172 13.5062 11.593 13.2571Z" fill="white"/>
</g>
<defs>
<clipPath id="clip0_72_405">
<rect width="13.1778" height="13.1778" fill="white" transform="translate(6.07715 6.64111)"/>
</clipPath>
</defs>
</svg>
