<svg width="78" height="78" viewBox="0 0 78 78" fill="none" xmlns="http://www.w3.org/2000/svg">
<g filter="url(#filter0_b_72_12894)">
<circle cx="39" cy="39" r="39" fill="white" fill-opacity="0.03"/>
<circle cx="39" cy="39" r="38.5" stroke="url(#paint0_linear_72_12894)" stroke-opacity="0.1"/>
</g>
<path d="M38.9997 21.5835C35.555 21.5835 32.1877 22.605 29.3235 24.5187C26.4593 26.4325 24.227 29.1526 22.9088 32.3351C21.5906 35.5176 21.2456 39.0195 21.9177 42.398C22.5897 45.7765 24.2485 48.8798 26.6842 51.3156C29.12 53.7514 32.2234 55.4101 35.6019 56.0822C38.9804 56.7542 42.4823 56.4093 45.6647 55.0911C48.8472 53.7728 51.5673 51.5405 53.4811 48.6763C55.3949 45.8122 56.4163 42.4448 56.4163 39.0002C56.4109 34.3826 54.5742 29.9558 51.3091 26.6907C48.044 23.4257 43.6172 21.5889 38.9997 21.5835ZM44.8691 44.8696C44.5722 45.1664 44.1695 45.3331 43.7497 45.3331C43.3298 45.3331 42.9272 45.1664 42.6303 44.8696L37.8803 40.1196C37.5833 39.8227 37.4164 39.42 37.4163 39.0002V29.5002C37.4163 29.0802 37.5832 28.6775 37.8801 28.3806C38.177 28.0836 38.5798 27.9168 38.9997 27.9168C39.4196 27.9168 39.8223 28.0836 40.1193 28.3806C40.4162 28.6775 40.583 29.0802 40.583 29.5002V38.3447L44.8691 42.6307C45.1659 42.9277 45.3327 43.3303 45.3327 43.7502C45.3327 44.17 45.1659 44.5727 44.8691 44.8696Z" fill="#36B0E0"/>
<defs>
<filter id="filter0_b_72_12894" x="-118" y="-118" width="314" height="314" filterUnits="userSpaceOnUse" color-interpolation-filters="sRGB">
<feFlood flood-opacity="0" result="BackgroundImageFix"/>
<feGaussianBlur in="BackgroundImageFix" stdDeviation="59"/>
<feComposite in2="SourceAlpha" operator="in" result="effect1_backgroundBlur_72_12894"/>
<feBlend mode="normal" in="SourceGraphic" in2="effect1_backgroundBlur_72_12894" result="shape"/>
</filter>
<linearGradient id="paint0_linear_72_12894" x1="73.9629" y1="1.27005" x2="16.7787" y2="45.2004" gradientUnits="userSpaceOnUse">
<stop stop-color="white"/>
<stop offset="1" stop-color="#051014"/>
</linearGradient>
</defs>
</svg>
