<svg width="215" height="179" viewBox="0 0 215 179" fill="none" xmlns="http://www.w3.org/2000/svg">
<g filter="url(#filter0_bi_72_12598)">
<path d="M72.3729 70.0122C72.0717 69.464 71.632 69.0044 71.0977 68.6792L42.1982 51.018C41.6314 50.6721 40.9802 50.489 40.3162 50.489C39.6521 50.489 39.0009 50.6721 38.4341 51.018L9.53458 68.6792C9.00026 69.0044 8.56057 69.464 8.25939 70.0122L40.3162 89.606L72.3729 70.0122Z" fill="url(#paint0_linear_72_12598)"/>
<path d="M8.25939 70.0122C7.96143 70.5481 7.80135 71.154 7.80078 71.7672V103.838C7.80113 104.457 7.96043 105.066 8.26342 105.605C8.56642 106.145 9.00294 106.597 9.53114 106.92L38.4306 124.581C38.9972 124.928 39.6485 125.111 40.3127 125.112L40.3162 89.606L8.25939 70.0122Z" fill="url(#paint1_linear_72_12598)"/>
<path d="M72.3729 70.0122C72.6709 70.5481 72.8241 71.154 72.8246 71.7672V103.838C72.8243 104.457 72.665 105.066 72.362 105.605C72.059 106.145 71.6225 106.597 71.0943 106.92L42.1948 124.581C41.6282 124.928 40.977 125.111 40.3127 125.112L40.3162 89.606L72.3729 70.0122Z" fill="url(#paint2_linear_72_12598)"/>
</g>
<g filter="url(#filter1_bi_72_12598)">
<path d="M72.3758 70.0122C72.0747 69.464 71.635 69.0044 71.1007 68.6792L42.2012 51.018C41.6343 50.6721 40.9831 50.489 40.3191 50.489C39.655 50.489 39.0038 50.6721 38.437 51.018L9.53751 68.6792C9.00319 69.0044 8.5635 69.464 8.26232 70.0122L40.3191 89.606L72.3758 70.0122Z" fill="url(#paint3_linear_72_12598)"/>
<path d="M8.26232 70.0122C7.96436 70.5481 7.80428 71.154 7.80371 71.7672V103.838C7.80406 104.457 7.96336 105.066 8.26635 105.605C8.56935 106.145 9.00587 106.597 9.53407 106.92L38.4336 124.581C39.0002 124.928 39.6514 125.111 40.3156 125.112L40.3191 89.606L8.26232 70.0122Z" fill="url(#paint4_linear_72_12598)"/>
<path d="M72.3758 70.0122C72.6738 70.5481 72.827 71.154 72.8276 71.7672V103.838C72.8272 104.457 72.6679 105.066 72.3649 105.605C72.0619 106.145 71.6254 106.597 71.0972 106.92L42.1977 124.581C41.6311 124.928 40.9799 125.111 40.3156 125.112L40.3191 89.606L72.3758 70.0122Z" fill="url(#paint5_linear_72_12598)"/>
</g>
<g filter="url(#filter2_bi_72_12598)">
<path d="M124.901 53.2996C124.736 52.9996 124.495 52.7481 124.203 52.5702L108.388 42.905C108.077 42.7156 107.721 42.6155 107.358 42.6155C106.994 42.6155 106.638 42.7156 106.328 42.905L90.5123 52.5702C90.2199 52.7481 89.9793 52.9996 89.8145 53.2996L107.358 64.0225L124.901 53.2996Z" fill="url(#paint6_linear_72_12598)"/>
<path d="M89.8145 53.2996C89.6514 53.5929 89.5638 53.9245 89.5635 54.2601V71.8112C89.5637 72.1499 89.6508 72.4828 89.8167 72.7781C89.9825 73.0733 90.2214 73.3211 90.5104 73.4975L106.326 83.1627C106.636 83.3524 106.992 83.453 107.356 83.4533L107.358 64.0225L89.8145 53.2996Z" fill="url(#paint7_linear_72_12598)"/>
<path d="M124.901 53.2996C125.064 53.5929 125.148 53.9245 125.148 54.2601V71.8112C125.148 72.1499 125.061 72.4828 124.895 72.7781C124.729 73.0733 124.49 73.3211 124.201 73.4975L108.386 83.1627C108.076 83.3524 107.719 83.453 107.356 83.4533L107.358 64.0225L124.901 53.2996Z" fill="url(#paint8_linear_72_12598)"/>
</g>
<g filter="url(#filter3_bi_72_12598)">
<path d="M161.67 76.8776C161.505 76.5776 161.264 76.3261 160.972 76.1482L145.156 66.483C144.846 66.2937 144.49 66.1935 144.126 66.1935C143.763 66.1935 143.406 66.2937 143.096 66.483L127.281 76.1482C126.988 76.3261 126.748 76.5776 126.583 76.8776L144.126 87.6005L161.67 76.8776Z" fill="url(#paint9_linear_72_12598)"/>
<path d="M126.583 76.8776C126.42 77.1709 126.332 77.5025 126.332 77.8381V95.3892C126.332 95.7279 126.419 96.0608 126.585 96.3561C126.751 96.6513 126.99 96.8991 127.279 97.0755L143.094 106.741C143.404 106.93 143.761 107.031 144.124 107.031L144.126 87.6005L126.583 76.8776Z" fill="url(#paint10_linear_72_12598)"/>
<path d="M161.67 76.8776C161.833 77.1709 161.916 77.5025 161.917 77.8381V95.3892C161.917 95.7279 161.829 96.0608 161.664 96.3561C161.498 96.6513 161.259 96.8991 160.97 97.0755L145.154 106.741C144.844 106.93 144.488 107.031 144.124 107.031L144.126 87.6005L161.67 76.8776Z" fill="url(#paint11_linear_72_12598)"/>
</g>
<g filter="url(#filter4_bi_72_12598)">
<path d="M124.9 103.92C124.735 103.62 124.495 103.369 124.202 103.191L108.387 93.5255C108.077 93.3361 107.72 93.236 107.357 93.236C106.993 93.236 106.637 93.3361 106.327 93.5255L90.5113 103.191C90.2189 103.369 89.9783 103.62 89.8135 103.92L107.357 114.643L124.9 103.92Z" fill="url(#paint12_linear_72_12598)"/>
<path d="M89.8135 103.92C89.6504 104.213 89.5628 104.545 89.5625 104.881V122.432C89.5627 122.77 89.6499 123.103 89.8157 123.399C89.9815 123.694 90.2204 123.942 90.5094 124.118L106.325 133.783C106.635 133.973 106.991 134.073 107.355 134.074L107.357 114.643L89.8135 103.92Z" fill="url(#paint13_linear_72_12598)"/>
<path d="M124.9 103.92C125.063 104.213 125.147 104.545 125.147 104.881V122.432C125.147 122.77 125.06 123.103 124.894 123.399C124.728 123.694 124.489 123.942 124.2 124.118L108.385 133.783C108.075 133.973 107.718 134.073 107.355 134.074L107.357 114.643L124.9 103.92Z" fill="url(#paint14_linear_72_12598)"/>
</g>
<g filter="url(#filter5_bi_72_12598)">
<path d="M147.248 24.6075C146.875 23.9278 146.33 23.3579 145.667 22.9547L109.834 1.05609C109.131 0.627107 108.323 0.400146 107.5 0.400146C106.677 0.400146 105.869 0.627107 105.166 1.05609L69.3331 22.9547C68.6706 23.3579 68.1254 23.9278 67.752 24.6075L107.5 48.8981L147.248 24.6075Z" fill="#1D1D1D" fill-opacity="0.05"/>
<path d="M147.248 24.6075C146.875 23.9278 146.33 23.3579 145.667 22.9547L109.834 1.05609C109.131 0.627107 108.323 0.400146 107.5 0.400146C106.677 0.400146 105.869 0.627107 105.166 1.05609L69.3331 22.9547C68.6706 23.3579 68.1254 23.9278 67.752 24.6075L107.5 48.8981L147.248 24.6075Z" fill="url(#paint15_linear_72_12598)" fill-opacity="0.2"/>
<path d="M107.5 48.0363L68.7915 24.381C69.0521 24.0669 69.364 23.7968 69.7154 23.5829L69.7166 23.5822L105.55 1.68378C105.55 1.68371 105.55 1.68364 105.55 1.68357C106.137 1.32515 106.812 1.13552 107.5 1.13552C108.188 1.13552 108.863 1.32515 109.45 1.68357C109.45 1.68364 109.45 1.68371 109.451 1.68378L145.284 23.5822L145.285 23.5829C145.636 23.7968 145.948 24.0669 146.209 24.381L107.5 48.0363Z" stroke="url(#paint16_linear_72_12598)" stroke-opacity="0.1" stroke-width="1.47075"/>
</g>
<g filter="url(#filter6_bi_72_12598)">
<path d="M67.7519 24.6069C67.3832 25.2701 67.189 26.0161 67.1875 26.7749V66.5409C67.1879 67.3082 67.3855 68.0625 67.7611 68.7315C68.1368 69.4006 68.6781 69.9619 69.333 70.3616L105.166 92.2603C105.869 92.6901 106.676 92.918 107.5 92.9187V48.8975L67.7519 24.6069Z" fill="#1D1D1D" fill-opacity="0.05"/>
<path d="M67.7519 24.6069C67.3832 25.2701 67.189 26.0161 67.1875 26.7749V66.5409C67.1879 67.3082 67.3855 68.0625 67.7611 68.7315C68.1368 69.4006 68.6781 69.9619 69.333 70.3616L105.166 92.2603C105.869 92.6901 106.676 92.918 107.5 92.9187V48.8975L67.7519 24.6069Z" fill="url(#paint17_linear_72_12598)" fill-opacity="0.2"/>
<path d="M67.9229 26.7756C67.9237 26.4012 67.9806 26.0306 68.0905 25.6757L106.765 49.3099V92.1096C106.337 92.0234 105.926 91.8627 105.55 91.633L105.55 91.6328L69.7165 69.7341L69.7162 69.7339C69.1687 69.3998 68.7164 68.9307 68.4023 68.3715C68.0884 67.8124 67.9233 67.1821 67.9229 66.5409V26.7756Z" stroke="url(#paint18_linear_72_12598)" stroke-opacity="0.1" stroke-width="1.47075"/>
</g>
<g filter="url(#filter7_bi_72_12598)">
<path d="M147.248 24.6069C147.617 25.2701 147.811 26.0161 147.812 26.7749V66.5409C147.812 67.3082 147.615 68.0625 147.239 68.7315C146.863 69.4006 146.322 69.9619 145.667 70.3616L109.834 92.2603C109.131 92.6901 108.324 92.918 107.5 92.9187V48.8975L147.248 24.6069Z" fill="#1D1D1D" fill-opacity="0.05"/>
<path d="M147.248 24.6069C147.617 25.2701 147.811 26.0161 147.812 26.7749V66.5409C147.812 67.3082 147.615 68.0625 147.239 68.7315C146.863 69.4006 146.322 69.9619 145.667 70.3616L109.834 92.2603C109.131 92.6901 108.324 92.918 107.5 92.9187V48.8975L147.248 24.6069Z" fill="url(#paint19_linear_72_12598)" fill-opacity="0.2"/>
<path d="M145.284 69.7339L145.284 69.7341L109.45 91.6328L109.45 91.633C109.074 91.8627 108.663 92.0234 108.235 92.1096V49.3099L146.909 25.6757C147.019 26.0308 147.076 26.4017 147.077 26.7763V66.5405C147.077 67.1818 146.912 67.8123 146.598 68.3715C146.284 68.9307 145.831 69.3998 145.284 69.7339Z" stroke="url(#paint20_linear_72_12598)" stroke-opacity="0.1" stroke-width="1.47075"/>
</g>
<g filter="url(#filter8_bi_72_12598)">
<path d="M214.436 65.7424C214.062 65.0627 213.517 64.4928 212.855 64.0896L177.021 42.191C176.318 41.762 175.511 41.535 174.688 41.535C173.864 41.535 173.057 41.762 172.354 42.191L136.521 64.0896C135.858 64.4928 135.313 65.0627 134.939 65.7424L174.688 90.0374L214.436 65.7424Z" fill="#1D1D1D" fill-opacity="0.05"/>
<path d="M214.436 65.7424C214.062 65.0627 213.517 64.4928 212.855 64.0896L177.021 42.191C176.318 41.762 175.511 41.535 174.688 41.535C173.864 41.535 173.057 41.762 172.354 42.191L136.521 64.0896C135.858 64.4928 135.313 65.0627 134.939 65.7424L174.688 90.0374L214.436 65.7424Z" fill="url(#paint21_linear_72_12598)" fill-opacity="0.2"/>
<path d="M174.688 89.1756L135.979 65.516C136.24 65.2018 136.551 64.9317 136.903 64.7178L136.904 64.7171L172.737 42.8187C173.324 42.4601 173.999 42.2704 174.688 42.2704C175.376 42.2704 176.05 42.46 176.638 42.8185C176.638 42.8185 176.638 42.8186 176.638 42.8187L212.471 64.7171L212.472 64.7178C212.824 64.9317 213.136 65.2018 213.396 65.516L174.688 89.1756Z" stroke="url(#paint22_linear_72_12598)" stroke-opacity="0.1" stroke-width="1.47075"/>
</g>
<g filter="url(#filter9_bi_72_12598)">
<path d="M134.939 65.7462C134.57 66.4107 134.376 67.1583 134.375 67.9186V107.685C134.375 108.452 134.573 109.206 134.949 109.875C135.324 110.544 135.866 111.106 136.521 111.505L172.354 133.404C173.056 133.834 173.864 134.062 174.687 134.062V90.0412L134.939 65.7462Z" fill="#1D1D1D" fill-opacity="0.05"/>
<path d="M134.939 65.7462C134.57 66.4107 134.376 67.1583 134.375 67.9186V107.685C134.375 108.452 134.573 109.206 134.949 109.875C135.324 110.544 135.866 111.106 136.521 111.505L172.354 133.404C173.056 133.834 173.864 134.062 174.687 134.062V90.0412L134.939 65.7462Z" fill="url(#paint23_linear_72_12598)" fill-opacity="0.2"/>
<path d="M135.11 67.919C135.111 67.5432 135.168 67.1712 135.278 66.8151L173.952 90.4536V133.253C173.524 133.167 173.113 133.006 172.738 132.777L172.737 132.777L136.904 110.878L136.904 110.878C136.356 110.544 135.904 110.074 135.59 109.515C135.276 108.956 135.111 108.326 135.11 107.685V67.919Z" stroke="url(#paint24_linear_72_12598)" stroke-opacity="0.1" stroke-width="1.47075"/>
</g>
<g filter="url(#filter10_bi_72_12598)">
<path d="M214.436 65.7462C214.805 66.4107 214.999 67.1583 215 67.9186V107.685C215 108.452 214.802 109.206 214.426 109.875C214.051 110.544 213.509 111.106 212.854 111.505L177.021 133.404C176.319 133.834 175.511 134.062 174.688 134.062V90.0412L214.436 65.7462Z" fill="#1D1D1D" fill-opacity="0.05"/>
<path d="M214.436 65.7462C214.805 66.4107 214.999 67.1583 215 67.9186V107.685C215 108.452 214.802 109.206 214.426 109.875C214.051 110.544 213.509 111.106 212.854 111.505L177.021 133.404C176.319 133.834 175.511 134.062 174.688 134.062V90.0412L214.436 65.7462Z" fill="url(#paint25_linear_72_12598)" fill-opacity="0.2"/>
<path d="M212.471 110.878L212.471 110.878L176.638 132.777L176.637 132.777C176.262 133.006 175.851 133.167 175.423 133.253V90.4536L214.097 66.8151C214.207 67.1713 214.264 67.5434 214.265 67.9193V107.684C214.264 108.326 214.099 108.956 213.785 109.515C213.471 110.074 213.019 110.544 212.471 110.878Z" stroke="url(#paint26_linear_72_12598)" stroke-opacity="0.1" stroke-width="1.47075"/>
</g>
<g filter="url(#filter11_bi_72_12598)">
<path d="M80.0607 65.7424C79.6873 65.0627 79.1421 64.4928 78.4795 64.0896L42.6462 42.191C41.9434 41.762 41.136 41.535 40.3126 41.535C39.4892 41.535 38.6817 41.762 37.9789 42.191L2.1456 64.0896C1.48308 64.4928 0.937898 65.0627 0.564453 65.7424L40.3126 90.0374L80.0607 65.7424Z" fill="#1D1D1D" fill-opacity="0.05"/>
<path d="M80.0607 65.7424C79.6873 65.0627 79.1421 64.4928 78.4795 64.0896L42.6462 42.191C41.9434 41.762 41.136 41.535 40.3126 41.535C39.4892 41.535 38.6817 41.762 37.9789 42.191L2.1456 64.0896C1.48308 64.4928 0.937898 65.0627 0.564453 65.7424L40.3126 90.0374L80.0607 65.7424Z" fill="url(#paint27_linear_72_12598)" fill-opacity="0.2"/>
<path d="M40.3126 89.1756L1.60398 65.516C1.86459 65.2018 2.17646 64.9317 2.5279 64.7178L2.52907 64.7171L38.3621 42.8187C38.3622 42.8186 38.3623 42.8185 38.3624 42.8185C38.9497 42.46 39.6245 42.2704 40.3126 42.2704C41.0006 42.2704 41.6754 42.46 42.2627 42.8185C42.2629 42.8185 42.263 42.8186 42.2631 42.8187L78.0961 64.7171L78.0972 64.7178C78.4487 64.9317 78.7606 65.2018 79.0212 65.516L40.3126 89.1756Z" stroke="url(#paint28_linear_72_12598)" stroke-opacity="0.1" stroke-width="1.47075"/>
</g>
<g filter="url(#filter12_bi_72_12598)">
<path d="M0.564375 65.7462C0.194927 66.4107 0.00070456 67.1583 0 67.9186L0 107.685C0.000427207 108.452 0.197955 109.206 0.573645 109.875C0.949336 110.544 1.49059 111.106 2.14552 111.505L37.9788 133.404C38.6814 133.834 39.4889 134.062 40.3125 134.062V90.0412L0.564375 65.7462Z" fill="#1D1D1D" fill-opacity="0.05"/>
<path d="M0.564375 65.7462C0.194927 66.4107 0.00070456 67.1583 0 67.9186L0 107.685C0.000427207 108.452 0.197955 109.206 0.573645 109.875C0.949336 110.544 1.49059 111.106 2.14552 111.505L37.9788 133.404C38.6814 133.834 39.4889 134.062 40.3125 134.062V90.0412L0.564375 65.7462Z" fill="url(#paint29_linear_72_12598)" fill-opacity="0.2"/>
<path d="M0.735375 67.919C0.735754 67.5432 0.792682 67.1712 0.902999 66.8151L39.5771 90.4536V133.253C39.1494 133.167 38.7381 133.006 38.3627 132.777L38.3623 132.777L2.52899 110.878L2.52865 110.878C1.98125 110.544 1.52885 110.074 1.21484 109.515C0.900897 108.956 0.735802 108.326 0.735375 107.685V67.919Z" stroke="url(#paint30_linear_72_12598)" stroke-opacity="0.1" stroke-width="1.47075"/>
</g>
<g filter="url(#filter13_bi_72_12598)">
<path d="M80.0606 65.7462C80.4301 66.4107 80.6243 67.1583 80.625 67.9186V107.685C80.6246 108.452 80.427 109.206 80.0514 109.875C79.6757 110.544 79.1344 111.106 78.4795 111.505L42.6461 133.404C41.9436 133.834 41.1361 134.062 40.3125 134.062V90.0412L80.0606 65.7462Z" fill="#1D1D1D" fill-opacity="0.05"/>
<path d="M80.0606 65.7462C80.4301 66.4107 80.6243 67.1583 80.625 67.9186V107.685C80.6246 108.452 80.427 109.206 80.0514 109.875C79.6757 110.544 79.1344 111.106 78.4795 111.505L42.6461 133.404C41.9436 133.834 41.1361 134.062 40.3125 134.062V90.0412L80.0606 65.7462Z" fill="url(#paint31_linear_72_12598)" fill-opacity="0.2"/>
<path d="M78.0963 110.878L78.096 110.878L42.2627 132.777L42.2623 132.777C41.8869 133.006 41.4756 133.167 41.0479 133.253V90.4536L79.722 66.8151C79.8323 67.1713 79.8893 67.5434 79.8896 67.9193V107.684C79.8893 108.326 79.7242 108.956 79.4102 109.515C79.0961 110.074 78.6438 110.544 78.0963 110.878Z" stroke="url(#paint32_linear_72_12598)" stroke-opacity="0.1" stroke-width="1.47075"/>
</g>
<g filter="url(#filter14_bi_72_12598)">
<path d="M147.248 110.482C146.875 109.802 146.33 109.232 145.667 108.829L109.834 86.9301C109.131 86.5011 108.323 86.2742 107.5 86.2742C106.677 86.2742 105.869 86.5011 105.166 86.9301L69.3331 108.829C68.6706 109.232 68.1254 109.802 67.752 110.482L107.5 134.772L147.248 110.482Z" fill="#1D1D1D" fill-opacity="0.05"/>
<path d="M147.248 110.482C146.875 109.802 146.33 109.232 145.667 108.829L109.834 86.9301C109.131 86.5011 108.323 86.2742 107.5 86.2742C106.677 86.2742 105.869 86.5011 105.166 86.9301L69.3331 108.829C68.6706 109.232 68.1254 109.802 67.752 110.482L107.5 134.772L147.248 110.482Z" fill="url(#paint33_linear_72_12598)" fill-opacity="0.2"/>
<path d="M107.5 133.91L68.7915 110.255C69.0521 109.941 69.364 109.671 69.7154 109.457L69.7166 109.456L105.55 87.5578C105.55 87.5577 105.55 87.5577 105.55 87.5576C106.137 87.1992 106.812 87.0095 107.5 87.0095C108.188 87.0095 108.863 87.1992 109.45 87.5576C109.45 87.5577 109.45 87.5577 109.451 87.5578L145.284 109.456L145.285 109.457C145.636 109.671 145.948 109.941 146.209 110.255L107.5 133.91Z" stroke="url(#paint34_linear_72_12598)" stroke-opacity="0.1" stroke-width="1.47075"/>
</g>
<g filter="url(#filter15_bi_72_12598)">
<path d="M67.7519 110.481C67.3832 111.144 67.189 111.89 67.1875 112.649V152.415C67.1879 153.182 67.3855 153.937 67.7611 154.606C68.1368 155.275 68.6781 155.836 69.333 156.236L105.166 178.134C105.869 178.564 106.676 178.792 107.5 178.793V134.771L67.7519 110.481Z" fill="#1D1D1D" fill-opacity="0.05"/>
<path d="M67.7519 110.481C67.3832 111.144 67.189 111.89 67.1875 112.649V152.415C67.1879 153.182 67.3855 153.937 67.7611 154.606C68.1368 155.275 68.6781 155.836 69.333 156.236L105.166 178.134C105.869 178.564 106.676 178.792 107.5 178.793V134.771L67.7519 110.481Z" fill="url(#paint35_linear_72_12598)" fill-opacity="0.2"/>
<path d="M67.9229 112.65C67.9237 112.275 67.9806 111.905 68.0905 111.55L106.765 135.184V177.984C106.337 177.897 105.926 177.737 105.55 177.507L105.55 177.507L69.7165 155.608L69.7162 155.608C69.1687 155.274 68.7164 154.805 68.4023 154.245C68.0884 153.686 67.9233 153.056 67.9229 152.415V112.65Z" stroke="url(#paint36_linear_72_12598)" stroke-opacity="0.1" stroke-width="1.47075"/>
</g>
<g filter="url(#filter16_bi_72_12598)">
<path d="M147.248 110.481C147.617 111.144 147.811 111.89 147.812 112.649V152.415C147.812 153.182 147.615 153.937 147.239 154.606C146.863 155.275 146.322 155.836 145.667 156.236L109.834 178.134C109.131 178.564 108.324 178.792 107.5 178.793V134.771L147.248 110.481Z" fill="#1D1D1D" fill-opacity="0.05"/>
<path d="M147.248 110.481C147.617 111.144 147.811 111.89 147.812 112.649V152.415C147.812 153.182 147.615 153.937 147.239 154.606C146.863 155.275 146.322 155.836 145.667 156.236L109.834 178.134C109.131 178.564 108.324 178.792 107.5 178.793V134.771L147.248 110.481Z" fill="url(#paint37_linear_72_12598)" fill-opacity="0.2"/>
<path d="M145.284 155.608L145.284 155.608L109.45 177.507L109.45 177.507C109.074 177.737 108.663 177.897 108.235 177.984V135.184L146.909 111.55C147.019 111.905 147.076 112.276 147.077 112.65V152.415C147.077 153.056 146.912 153.686 146.598 154.245C146.284 154.805 145.831 155.274 145.284 155.608Z" stroke="url(#paint38_linear_72_12598)" stroke-opacity="0.1" stroke-width="1.47075"/>
</g>
<defs>
<filter id="filter0_bi_72_12598" x="-4.06076" y="38.6275" width="88.7465" height="98.346" filterUnits="userSpaceOnUse" color-interpolation-filters="sRGB">
<feFlood flood-opacity="0" result="BackgroundImageFix"/>
<feGaussianBlur in="BackgroundImageFix" stdDeviation="5.93077"/>
<feComposite in2="SourceAlpha" operator="in" result="effect1_backgroundBlur_72_12598"/>
<feBlend mode="normal" in="SourceGraphic" in2="effect1_backgroundBlur_72_12598" result="shape"/>
<feColorMatrix in="SourceAlpha" type="matrix" values="0 0 0 0 0 0 0 0 0 0 0 0 0 0 0 0 0 0 127 0" result="hardAlpha"/>
<feOffset dy="1.97692"/>
<feGaussianBlur stdDeviation="3.95385"/>
<feComposite in2="hardAlpha" operator="arithmetic" k2="-1" k3="1"/>
<feColorMatrix type="matrix" values="0 0 0 0 1 0 0 0 0 1 0 0 0 0 1 0 0 0 0.4 0"/>
<feBlend mode="normal" in2="shape" result="effect2_innerShadow_72_12598"/>
</filter>
<filter id="filter1_bi_72_12598" x="-4.05783" y="38.6275" width="88.7465" height="98.346" filterUnits="userSpaceOnUse" color-interpolation-filters="sRGB">
<feFlood flood-opacity="0" result="BackgroundImageFix"/>
<feGaussianBlur in="BackgroundImageFix" stdDeviation="5.93077"/>
<feComposite in2="SourceAlpha" operator="in" result="effect1_backgroundBlur_72_12598"/>
<feBlend mode="normal" in="SourceGraphic" in2="effect1_backgroundBlur_72_12598" result="shape"/>
<feColorMatrix in="SourceAlpha" type="matrix" values="0 0 0 0 0 0 0 0 0 0 0 0 0 0 0 0 0 0 127 0" result="hardAlpha"/>
<feOffset dy="1.97692"/>
<feGaussianBlur stdDeviation="3.95385"/>
<feComposite in2="hardAlpha" operator="arithmetic" k2="-1" k3="1"/>
<feColorMatrix type="matrix" values="0 0 0 0 1 0 0 0 0 1 0 0 0 0 1 0 0 0 0.4 0"/>
<feBlend mode="normal" in2="shape" result="effect2_innerShadow_72_12598"/>
</filter>
<filter id="filter2_bi_72_12598" x="77.7019" y="30.7539" width="59.3081" height="64.5609" filterUnits="userSpaceOnUse" color-interpolation-filters="sRGB">
<feFlood flood-opacity="0" result="BackgroundImageFix"/>
<feGaussianBlur in="BackgroundImageFix" stdDeviation="5.93077"/>
<feComposite in2="SourceAlpha" operator="in" result="effect1_backgroundBlur_72_12598"/>
<feBlend mode="normal" in="SourceGraphic" in2="effect1_backgroundBlur_72_12598" result="shape"/>
<feColorMatrix in="SourceAlpha" type="matrix" values="0 0 0 0 0 0 0 0 0 0 0 0 0 0 0 0 0 0 127 0" result="hardAlpha"/>
<feOffset dy="1.97692"/>
<feGaussianBlur stdDeviation="3.95385"/>
<feComposite in2="hardAlpha" operator="arithmetic" k2="-1" k3="1"/>
<feColorMatrix type="matrix" values="0 0 0 0 1 0 0 0 0 1 0 0 0 0 1 0 0 0 0.4 0"/>
<feBlend mode="normal" in2="shape" result="effect2_innerShadow_72_12598"/>
</filter>
<filter id="filter3_bi_72_12598" x="114.47" y="54.3319" width="59.3081" height="64.5609" filterUnits="userSpaceOnUse" color-interpolation-filters="sRGB">
<feFlood flood-opacity="0" result="BackgroundImageFix"/>
<feGaussianBlur in="BackgroundImageFix" stdDeviation="5.93077"/>
<feComposite in2="SourceAlpha" operator="in" result="effect1_backgroundBlur_72_12598"/>
<feBlend mode="normal" in="SourceGraphic" in2="effect1_backgroundBlur_72_12598" result="shape"/>
<feColorMatrix in="SourceAlpha" type="matrix" values="0 0 0 0 0 0 0 0 0 0 0 0 0 0 0 0 0 0 127 0" result="hardAlpha"/>
<feOffset dy="1.97692"/>
<feGaussianBlur stdDeviation="3.95385"/>
<feComposite in2="hardAlpha" operator="arithmetic" k2="-1" k3="1"/>
<feColorMatrix type="matrix" values="0 0 0 0 1 0 0 0 0 1 0 0 0 0 1 0 0 0 0.4 0"/>
<feBlend mode="normal" in2="shape" result="effect2_innerShadow_72_12598"/>
</filter>
<filter id="filter4_bi_72_12598" x="77.701" y="81.3744" width="59.3081" height="64.5609" filterUnits="userSpaceOnUse" color-interpolation-filters="sRGB">
<feFlood flood-opacity="0" result="BackgroundImageFix"/>
<feGaussianBlur in="BackgroundImageFix" stdDeviation="5.93077"/>
<feComposite in2="SourceAlpha" operator="in" result="effect1_backgroundBlur_72_12598"/>
<feBlend mode="normal" in="SourceGraphic" in2="effect1_backgroundBlur_72_12598" result="shape"/>
<feColorMatrix in="SourceAlpha" type="matrix" values="0 0 0 0 0 0 0 0 0 0 0 0 0 0 0 0 0 0 127 0" result="hardAlpha"/>
<feOffset dy="1.97692"/>
<feGaussianBlur stdDeviation="3.95385"/>
<feComposite in2="hardAlpha" operator="arithmetic" k2="-1" k3="1"/>
<feColorMatrix type="matrix" values="0 0 0 0 1 0 0 0 0 1 0 0 0 0 1 0 0 0 0.4 0"/>
<feBlend mode="normal" in2="shape" result="effect2_innerShadow_72_12598"/>
</filter>
<filter id="filter5_bi_72_12598" x="38.337" y="-29.0148" width="138.326" height="107.328" filterUnits="userSpaceOnUse" color-interpolation-filters="sRGB">
<feFlood flood-opacity="0" result="BackgroundImageFix"/>
<feGaussianBlur in="BackgroundImageFix" stdDeviation="14.7075"/>
<feComposite in2="SourceAlpha" operator="in" result="effect1_backgroundBlur_72_12598"/>
<feBlend mode="normal" in="SourceGraphic" in2="effect1_backgroundBlur_72_12598" result="shape"/>
<feColorMatrix in="SourceAlpha" type="matrix" values="0 0 0 0 0 0 0 0 0 0 0 0 0 0 0 0 0 0 127 0" result="hardAlpha"/>
<feOffset dy="9.805"/>
<feGaussianBlur stdDeviation="7.35375"/>
<feComposite in2="hardAlpha" operator="arithmetic" k2="-1" k3="1"/>
<feColorMatrix type="matrix" values="0 0 0 0 1 0 0 0 0 1 0 0 0 0 1 0 0 0 0.15 0"/>
<feBlend mode="normal" in2="shape" result="effect2_innerShadow_72_12598"/>
</filter>
<filter id="filter6_bi_72_12598" x="37.7725" y="-4.80806" width="99.1425" height="127.142" filterUnits="userSpaceOnUse" color-interpolation-filters="sRGB">
<feFlood flood-opacity="0" result="BackgroundImageFix"/>
<feGaussianBlur in="BackgroundImageFix" stdDeviation="14.7075"/>
<feComposite in2="SourceAlpha" operator="in" result="effect1_backgroundBlur_72_12598"/>
<feBlend mode="normal" in="SourceGraphic" in2="effect1_backgroundBlur_72_12598" result="shape"/>
<feColorMatrix in="SourceAlpha" type="matrix" values="0 0 0 0 0 0 0 0 0 0 0 0 0 0 0 0 0 0 127 0" result="hardAlpha"/>
<feOffset dy="9.805"/>
<feGaussianBlur stdDeviation="7.35375"/>
<feComposite in2="hardAlpha" operator="arithmetic" k2="-1" k3="1"/>
<feColorMatrix type="matrix" values="0 0 0 0 1 0 0 0 0 1 0 0 0 0 1 0 0 0 0.15 0"/>
<feBlend mode="normal" in2="shape" result="effect2_innerShadow_72_12598"/>
</filter>
<filter id="filter7_bi_72_12598" x="78.085" y="-4.80806" width="99.1425" height="127.142" filterUnits="userSpaceOnUse" color-interpolation-filters="sRGB">
<feFlood flood-opacity="0" result="BackgroundImageFix"/>
<feGaussianBlur in="BackgroundImageFix" stdDeviation="14.7075"/>
<feComposite in2="SourceAlpha" operator="in" result="effect1_backgroundBlur_72_12598"/>
<feBlend mode="normal" in="SourceGraphic" in2="effect1_backgroundBlur_72_12598" result="shape"/>
<feColorMatrix in="SourceAlpha" type="matrix" values="0 0 0 0 0 0 0 0 0 0 0 0 0 0 0 0 0 0 127 0" result="hardAlpha"/>
<feOffset dy="9.805"/>
<feGaussianBlur stdDeviation="7.35375"/>
<feComposite in2="hardAlpha" operator="arithmetic" k2="-1" k3="1"/>
<feColorMatrix type="matrix" values="0 0 0 0 1 0 0 0 0 1 0 0 0 0 1 0 0 0 0.15 0"/>
<feBlend mode="normal" in2="shape" result="effect2_innerShadow_72_12598"/>
</filter>
<filter id="filter8_bi_72_12598" x="105.524" y="12.12" width="138.326" height="107.332" filterUnits="userSpaceOnUse" color-interpolation-filters="sRGB">
<feFlood flood-opacity="0" result="BackgroundImageFix"/>
<feGaussianBlur in="BackgroundImageFix" stdDeviation="14.7075"/>
<feComposite in2="SourceAlpha" operator="in" result="effect1_backgroundBlur_72_12598"/>
<feBlend mode="normal" in="SourceGraphic" in2="effect1_backgroundBlur_72_12598" result="shape"/>
<feColorMatrix in="SourceAlpha" type="matrix" values="0 0 0 0 0 0 0 0 0 0 0 0 0 0 0 0 0 0 127 0" result="hardAlpha"/>
<feOffset dy="9.805"/>
<feGaussianBlur stdDeviation="7.35375"/>
<feComposite in2="hardAlpha" operator="arithmetic" k2="-1" k3="1"/>
<feColorMatrix type="matrix" values="0 0 0 0 1 0 0 0 0 1 0 0 0 0 1 0 0 0 0.15 0"/>
<feBlend mode="normal" in2="shape" result="effect2_innerShadow_72_12598"/>
</filter>
<filter id="filter9_bi_72_12598" x="104.96" y="36.3312" width="99.1425" height="127.146" filterUnits="userSpaceOnUse" color-interpolation-filters="sRGB">
<feFlood flood-opacity="0" result="BackgroundImageFix"/>
<feGaussianBlur in="BackgroundImageFix" stdDeviation="14.7075"/>
<feComposite in2="SourceAlpha" operator="in" result="effect1_backgroundBlur_72_12598"/>
<feBlend mode="normal" in="SourceGraphic" in2="effect1_backgroundBlur_72_12598" result="shape"/>
<feColorMatrix in="SourceAlpha" type="matrix" values="0 0 0 0 0 0 0 0 0 0 0 0 0 0 0 0 0 0 127 0" result="hardAlpha"/>
<feOffset dy="9.805"/>
<feGaussianBlur stdDeviation="7.35375"/>
<feComposite in2="hardAlpha" operator="arithmetic" k2="-1" k3="1"/>
<feColorMatrix type="matrix" values="0 0 0 0 1 0 0 0 0 1 0 0 0 0 1 0 0 0 0.15 0"/>
<feBlend mode="normal" in2="shape" result="effect2_innerShadow_72_12598"/>
</filter>
<filter id="filter10_bi_72_12598" x="145.273" y="36.3312" width="99.1425" height="127.146" filterUnits="userSpaceOnUse" color-interpolation-filters="sRGB">
<feFlood flood-opacity="0" result="BackgroundImageFix"/>
<feGaussianBlur in="BackgroundImageFix" stdDeviation="14.7075"/>
<feComposite in2="SourceAlpha" operator="in" result="effect1_backgroundBlur_72_12598"/>
<feBlend mode="normal" in="SourceGraphic" in2="effect1_backgroundBlur_72_12598" result="shape"/>
<feColorMatrix in="SourceAlpha" type="matrix" values="0 0 0 0 0 0 0 0 0 0 0 0 0 0 0 0 0 0 127 0" result="hardAlpha"/>
<feOffset dy="9.805"/>
<feGaussianBlur stdDeviation="7.35375"/>
<feComposite in2="hardAlpha" operator="arithmetic" k2="-1" k3="1"/>
<feColorMatrix type="matrix" values="0 0 0 0 1 0 0 0 0 1 0 0 0 0 1 0 0 0 0.15 0"/>
<feBlend mode="normal" in2="shape" result="effect2_innerShadow_72_12598"/>
</filter>
<filter id="filter11_bi_72_12598" x="-28.8505" y="12.12" width="138.326" height="107.332" filterUnits="userSpaceOnUse" color-interpolation-filters="sRGB">
<feFlood flood-opacity="0" result="BackgroundImageFix"/>
<feGaussianBlur in="BackgroundImageFix" stdDeviation="14.7075"/>
<feComposite in2="SourceAlpha" operator="in" result="effect1_backgroundBlur_72_12598"/>
<feBlend mode="normal" in="SourceGraphic" in2="effect1_backgroundBlur_72_12598" result="shape"/>
<feColorMatrix in="SourceAlpha" type="matrix" values="0 0 0 0 0 0 0 0 0 0 0 0 0 0 0 0 0 0 127 0" result="hardAlpha"/>
<feOffset dy="9.805"/>
<feGaussianBlur stdDeviation="7.35375"/>
<feComposite in2="hardAlpha" operator="arithmetic" k2="-1" k3="1"/>
<feColorMatrix type="matrix" values="0 0 0 0 1 0 0 0 0 1 0 0 0 0 1 0 0 0 0.15 0"/>
<feBlend mode="normal" in2="shape" result="effect2_innerShadow_72_12598"/>
</filter>
<filter id="filter12_bi_72_12598" x="-29.415" y="36.3312" width="99.1425" height="127.146" filterUnits="userSpaceOnUse" color-interpolation-filters="sRGB">
<feFlood flood-opacity="0" result="BackgroundImageFix"/>
<feGaussianBlur in="BackgroundImageFix" stdDeviation="14.7075"/>
<feComposite in2="SourceAlpha" operator="in" result="effect1_backgroundBlur_72_12598"/>
<feBlend mode="normal" in="SourceGraphic" in2="effect1_backgroundBlur_72_12598" result="shape"/>
<feColorMatrix in="SourceAlpha" type="matrix" values="0 0 0 0 0 0 0 0 0 0 0 0 0 0 0 0 0 0 127 0" result="hardAlpha"/>
<feOffset dy="9.805"/>
<feGaussianBlur stdDeviation="7.35375"/>
<feComposite in2="hardAlpha" operator="arithmetic" k2="-1" k3="1"/>
<feColorMatrix type="matrix" values="0 0 0 0 1 0 0 0 0 1 0 0 0 0 1 0 0 0 0.15 0"/>
<feBlend mode="normal" in2="shape" result="effect2_innerShadow_72_12598"/>
</filter>
<filter id="filter13_bi_72_12598" x="10.8975" y="36.3312" width="99.1425" height="127.146" filterUnits="userSpaceOnUse" color-interpolation-filters="sRGB">
<feFlood flood-opacity="0" result="BackgroundImageFix"/>
<feGaussianBlur in="BackgroundImageFix" stdDeviation="14.7075"/>
<feComposite in2="SourceAlpha" operator="in" result="effect1_backgroundBlur_72_12598"/>
<feBlend mode="normal" in="SourceGraphic" in2="effect1_backgroundBlur_72_12598" result="shape"/>
<feColorMatrix in="SourceAlpha" type="matrix" values="0 0 0 0 0 0 0 0 0 0 0 0 0 0 0 0 0 0 127 0" result="hardAlpha"/>
<feOffset dy="9.805"/>
<feGaussianBlur stdDeviation="7.35375"/>
<feComposite in2="hardAlpha" operator="arithmetic" k2="-1" k3="1"/>
<feColorMatrix type="matrix" values="0 0 0 0 1 0 0 0 0 1 0 0 0 0 1 0 0 0 0.15 0"/>
<feBlend mode="normal" in2="shape" result="effect2_innerShadow_72_12598"/>
</filter>
<filter id="filter14_bi_72_12598" x="38.337" y="56.8592" width="138.326" height="107.328" filterUnits="userSpaceOnUse" color-interpolation-filters="sRGB">
<feFlood flood-opacity="0" result="BackgroundImageFix"/>
<feGaussianBlur in="BackgroundImageFix" stdDeviation="14.7075"/>
<feComposite in2="SourceAlpha" operator="in" result="effect1_backgroundBlur_72_12598"/>
<feBlend mode="normal" in="SourceGraphic" in2="effect1_backgroundBlur_72_12598" result="shape"/>
<feColorMatrix in="SourceAlpha" type="matrix" values="0 0 0 0 0 0 0 0 0 0 0 0 0 0 0 0 0 0 127 0" result="hardAlpha"/>
<feOffset dy="9.805"/>
<feGaussianBlur stdDeviation="7.35375"/>
<feComposite in2="hardAlpha" operator="arithmetic" k2="-1" k3="1"/>
<feColorMatrix type="matrix" values="0 0 0 0 1 0 0 0 0 1 0 0 0 0 1 0 0 0 0.15 0"/>
<feBlend mode="normal" in2="shape" result="effect2_innerShadow_72_12598"/>
</filter>
<filter id="filter15_bi_72_12598" x="37.7725" y="81.066" width="99.1425" height="127.142" filterUnits="userSpaceOnUse" color-interpolation-filters="sRGB">
<feFlood flood-opacity="0" result="BackgroundImageFix"/>
<feGaussianBlur in="BackgroundImageFix" stdDeviation="14.7075"/>
<feComposite in2="SourceAlpha" operator="in" result="effect1_backgroundBlur_72_12598"/>
<feBlend mode="normal" in="SourceGraphic" in2="effect1_backgroundBlur_72_12598" result="shape"/>
<feColorMatrix in="SourceAlpha" type="matrix" values="0 0 0 0 0 0 0 0 0 0 0 0 0 0 0 0 0 0 127 0" result="hardAlpha"/>
<feOffset dy="9.805"/>
<feGaussianBlur stdDeviation="7.35375"/>
<feComposite in2="hardAlpha" operator="arithmetic" k2="-1" k3="1"/>
<feColorMatrix type="matrix" values="0 0 0 0 1 0 0 0 0 1 0 0 0 0 1 0 0 0 0.15 0"/>
<feBlend mode="normal" in2="shape" result="effect2_innerShadow_72_12598"/>
</filter>
<filter id="filter16_bi_72_12598" x="78.085" y="81.066" width="99.1425" height="127.142" filterUnits="userSpaceOnUse" color-interpolation-filters="sRGB">
<feFlood flood-opacity="0" result="BackgroundImageFix"/>
<feGaussianBlur in="BackgroundImageFix" stdDeviation="14.7075"/>
<feComposite in2="SourceAlpha" operator="in" result="effect1_backgroundBlur_72_12598"/>
<feBlend mode="normal" in="SourceGraphic" in2="effect1_backgroundBlur_72_12598" result="shape"/>
<feColorMatrix in="SourceAlpha" type="matrix" values="0 0 0 0 0 0 0 0 0 0 0 0 0 0 0 0 0 0 127 0" result="hardAlpha"/>
<feOffset dy="9.805"/>
<feGaussianBlur stdDeviation="7.35375"/>
<feComposite in2="hardAlpha" operator="arithmetic" k2="-1" k3="1"/>
<feColorMatrix type="matrix" values="0 0 0 0 1 0 0 0 0 1 0 0 0 0 1 0 0 0 0.15 0"/>
<feBlend mode="normal" in2="shape" result="effect2_innerShadow_72_12598"/>
</filter>
<linearGradient id="paint0_linear_72_12598" x1="10.5101" y1="65.4136" x2="81.7159" y2="74.0311" gradientUnits="userSpaceOnUse">
<stop stop-color="#8AE6CF"/>
<stop offset="1" stop-color="#7C3AE7"/>
</linearGradient>
<linearGradient id="paint1_linear_72_12598" x1="10.5101" y1="65.4136" x2="81.7159" y2="74.0311" gradientUnits="userSpaceOnUse">
<stop stop-color="#8AE6CF"/>
<stop offset="1" stop-color="#7C3AE7"/>
</linearGradient>
<linearGradient id="paint2_linear_72_12598" x1="10.5101" y1="65.4136" x2="81.7159" y2="74.0311" gradientUnits="userSpaceOnUse">
<stop stop-color="#8AE6CF"/>
<stop offset="1" stop-color="#7C3AE7"/>
</linearGradient>
<linearGradient id="paint3_linear_72_12598" x1="10.513" y1="65.4136" x2="81.7188" y2="74.0311" gradientUnits="userSpaceOnUse">
<stop stop-color="#8AE6CF"/>
<stop offset="1" stop-color="#7C3AE7"/>
</linearGradient>
<linearGradient id="paint4_linear_72_12598" x1="10.513" y1="65.4136" x2="81.7188" y2="74.0311" gradientUnits="userSpaceOnUse">
<stop stop-color="#8AE6CF"/>
<stop offset="1" stop-color="#7C3AE7"/>
</linearGradient>
<linearGradient id="paint5_linear_72_12598" x1="10.513" y1="65.4136" x2="81.7188" y2="74.0311" gradientUnits="userSpaceOnUse">
<stop stop-color="#8AE6CF"/>
<stop offset="1" stop-color="#7C3AE7"/>
</linearGradient>
<linearGradient id="paint6_linear_72_12598" x1="91.0462" y1="50.783" x2="130.014" y2="55.499" gradientUnits="userSpaceOnUse">
<stop stop-color="#8AE6CF"/>
<stop offset="1" stop-color="#7C3AE7"/>
</linearGradient>
<linearGradient id="paint7_linear_72_12598" x1="91.0462" y1="50.783" x2="130.014" y2="55.499" gradientUnits="userSpaceOnUse">
<stop stop-color="#8AE6CF"/>
<stop offset="1" stop-color="#7C3AE7"/>
</linearGradient>
<linearGradient id="paint8_linear_72_12598" x1="91.0462" y1="50.783" x2="130.014" y2="55.499" gradientUnits="userSpaceOnUse">
<stop stop-color="#8AE6CF"/>
<stop offset="1" stop-color="#7C3AE7"/>
</linearGradient>
<linearGradient id="paint9_linear_72_12598" x1="127.815" y1="74.361" x2="166.783" y2="79.077" gradientUnits="userSpaceOnUse">
<stop stop-color="#8AE6CF"/>
<stop offset="1" stop-color="#7C3AE7"/>
</linearGradient>
<linearGradient id="paint10_linear_72_12598" x1="127.815" y1="74.361" x2="166.783" y2="79.077" gradientUnits="userSpaceOnUse">
<stop stop-color="#8AE6CF"/>
<stop offset="1" stop-color="#7C3AE7"/>
</linearGradient>
<linearGradient id="paint11_linear_72_12598" x1="127.815" y1="74.361" x2="166.783" y2="79.077" gradientUnits="userSpaceOnUse">
<stop stop-color="#8AE6CF"/>
<stop offset="1" stop-color="#7C3AE7"/>
</linearGradient>
<linearGradient id="paint12_linear_72_12598" x1="91.0452" y1="101.404" x2="130.013" y2="106.12" gradientUnits="userSpaceOnUse">
<stop stop-color="#8AE6CF"/>
<stop offset="1" stop-color="#7C3AE7"/>
</linearGradient>
<linearGradient id="paint13_linear_72_12598" x1="91.0452" y1="101.404" x2="130.013" y2="106.12" gradientUnits="userSpaceOnUse">
<stop stop-color="#8AE6CF"/>
<stop offset="1" stop-color="#7C3AE7"/>
</linearGradient>
<linearGradient id="paint14_linear_72_12598" x1="91.0452" y1="101.404" x2="130.013" y2="106.12" gradientUnits="userSpaceOnUse">
<stop stop-color="#8AE6CF"/>
<stop offset="1" stop-color="#7C3AE7"/>
</linearGradient>
<linearGradient id="paint15_linear_72_12598" x1="71.0643" y1="10.0997" x2="155.041" y2="29.218" gradientUnits="userSpaceOnUse">
<stop stop-color="#66FECB"/>
<stop offset="1" stop-color="#8940FF"/>
</linearGradient>
<linearGradient id="paint16_linear_72_12598" x1="70.2362" y1="2.6046" x2="147.248" y2="2.6046" gradientUnits="userSpaceOnUse">
<stop stop-color="#C8A6FF"/>
<stop offset="1" stop-color="#69CFB5"/>
</linearGradient>
<linearGradient id="paint17_linear_72_12598" x1="68.8672" y1="38.2693" x2="113.36" y2="41.916" gradientUnits="userSpaceOnUse">
<stop stop-color="#66FECB"/>
<stop offset="1" stop-color="#8940FF"/>
</linearGradient>
<linearGradient id="paint18_linear_72_12598" x1="68.4473" y1="27.712" x2="107.5" y2="27.712" gradientUnits="userSpaceOnUse">
<stop stop-color="#C8A6FF"/>
<stop offset="1" stop-color="#69CFB5"/>
</linearGradient>
<linearGradient id="paint19_linear_72_12598" x1="109.18" y1="38.2693" x2="153.672" y2="41.916" gradientUnits="userSpaceOnUse">
<stop stop-color="#66FECB"/>
<stop offset="1" stop-color="#8940FF"/>
</linearGradient>
<linearGradient id="paint20_linear_72_12598" x1="108.76" y1="27.712" x2="147.812" y2="27.712" gradientUnits="userSpaceOnUse">
<stop stop-color="#C8A6FF"/>
<stop offset="1" stop-color="#69CFB5"/>
</linearGradient>
<linearGradient id="paint21_linear_72_12598" x1="138.252" y1="51.2355" x2="222.229" y2="70.3522" gradientUnits="userSpaceOnUse">
<stop stop-color="#66FECB"/>
<stop offset="1" stop-color="#8940FF"/>
</linearGradient>
<linearGradient id="paint22_linear_72_12598" x1="137.424" y1="43.7397" x2="214.436" y2="43.7397" gradientUnits="userSpaceOnUse">
<stop stop-color="#C8A6FF"/>
<stop offset="1" stop-color="#69CFB5"/>
</linearGradient>
<linearGradient id="paint23_linear_72_12598" x1="136.055" y1="79.4095" x2="180.547" y2="83.0559" gradientUnits="userSpaceOnUse">
<stop stop-color="#66FECB"/>
<stop offset="1" stop-color="#8940FF"/>
</linearGradient>
<linearGradient id="paint24_linear_72_12598" x1="135.635" y1="68.8515" x2="174.687" y2="68.8515" gradientUnits="userSpaceOnUse">
<stop stop-color="#C8A6FF"/>
<stop offset="1" stop-color="#69CFB5"/>
</linearGradient>
<linearGradient id="paint25_linear_72_12598" x1="176.367" y1="79.4095" x2="220.86" y2="83.0559" gradientUnits="userSpaceOnUse">
<stop stop-color="#66FECB"/>
<stop offset="1" stop-color="#8940FF"/>
</linearGradient>
<linearGradient id="paint26_linear_72_12598" x1="175.947" y1="68.8515" x2="215" y2="68.8515" gradientUnits="userSpaceOnUse">
<stop stop-color="#C8A6FF"/>
<stop offset="1" stop-color="#69CFB5"/>
</linearGradient>
<linearGradient id="paint27_linear_72_12598" x1="3.8768" y1="51.2355" x2="87.8542" y2="70.3522" gradientUnits="userSpaceOnUse">
<stop stop-color="#66FECB"/>
<stop offset="1" stop-color="#8940FF"/>
</linearGradient>
<linearGradient id="paint28_linear_72_12598" x1="3.04871" y1="43.7397" x2="80.0607" y2="43.7397" gradientUnits="userSpaceOnUse">
<stop stop-color="#C8A6FF"/>
<stop offset="1" stop-color="#69CFB5"/>
</linearGradient>
<linearGradient id="paint29_linear_72_12598" x1="1.67969" y1="79.4095" x2="46.1725" y2="83.0559" gradientUnits="userSpaceOnUse">
<stop stop-color="#66FECB"/>
<stop offset="1" stop-color="#8940FF"/>
</linearGradient>
<linearGradient id="paint30_linear_72_12598" x1="1.25977" y1="68.8515" x2="40.3125" y2="68.8515" gradientUnits="userSpaceOnUse">
<stop stop-color="#C8A6FF"/>
<stop offset="1" stop-color="#69CFB5"/>
</linearGradient>
<linearGradient id="paint31_linear_72_12598" x1="41.9922" y1="79.4095" x2="86.485" y2="83.0559" gradientUnits="userSpaceOnUse">
<stop stop-color="#66FECB"/>
<stop offset="1" stop-color="#8940FF"/>
</linearGradient>
<linearGradient id="paint32_linear_72_12598" x1="41.5723" y1="68.8515" x2="80.625" y2="68.8515" gradientUnits="userSpaceOnUse">
<stop stop-color="#C8A6FF"/>
<stop offset="1" stop-color="#69CFB5"/>
</linearGradient>
<linearGradient id="paint33_linear_72_12598" x1="71.0643" y1="95.9738" x2="155.041" y2="115.092" gradientUnits="userSpaceOnUse">
<stop stop-color="#66FECB"/>
<stop offset="1" stop-color="#8940FF"/>
</linearGradient>
<linearGradient id="paint34_linear_72_12598" x1="70.2362" y1="88.4786" x2="147.248" y2="88.4786" gradientUnits="userSpaceOnUse">
<stop stop-color="#C8A6FF"/>
<stop offset="1" stop-color="#69CFB5"/>
</linearGradient>
<linearGradient id="paint35_linear_72_12598" x1="68.8672" y1="124.143" x2="113.36" y2="127.79" gradientUnits="userSpaceOnUse">
<stop stop-color="#66FECB"/>
<stop offset="1" stop-color="#8940FF"/>
</linearGradient>
<linearGradient id="paint36_linear_72_12598" x1="68.4473" y1="113.586" x2="107.5" y2="113.586" gradientUnits="userSpaceOnUse">
<stop stop-color="#C8A6FF"/>
<stop offset="1" stop-color="#69CFB5"/>
</linearGradient>
<linearGradient id="paint37_linear_72_12598" x1="109.18" y1="124.143" x2="153.672" y2="127.79" gradientUnits="userSpaceOnUse">
<stop stop-color="#66FECB"/>
<stop offset="1" stop-color="#8940FF"/>
</linearGradient>
<linearGradient id="paint38_linear_72_12598" x1="108.76" y1="113.586" x2="147.812" y2="113.586" gradientUnits="userSpaceOnUse">
<stop stop-color="#C8A6FF"/>
<stop offset="1" stop-color="#69CFB5"/>
</linearGradient>
</defs>
</svg>
